<?xml version="1.0" encoding="utf-8"?>
<!-- Generator: Adobe Illustrator 16.0.0, SVG Export Plug-In . SVG Version: 6.00 Build 0)  -->
<!DOCTYPE svg PUBLIC "-//W3C//DTD SVG 1.1//EN" "http://www.w3.org/Graphics/SVG/1.1/DTD/svg11.dtd">
<svg version="1.1" xmlns="http://www.w3.org/2000/svg" xmlns:xlink="http://www.w3.org/1999/xlink" x="0px" y="0px"
	 width="153.07px" height="243.78px" viewBox="0 0 153.07 243.78" enable-background="new 0 0 153.07 243.78" xml:space="preserve">
<g id="Layer_2">
	<rect y="0.001" fill="#0E0F24" width="153.07" height="243.778"/>
</g>
<g id="Layer_1">
	<g>
		<g>
			<rect x="111.622" y="217.005" fill="#A8BBE0" width="17.545" height="1.994"/>
			<path fill="#A8BBE0" d="M111.622,220.003h17.545v0.631h-8.617c0.793,1.311,2.86,1.891,3.895,2.111v0.034
				c-1.017,0.119-2.327,0.664-2.43,1.805c-0.155,1.755,2.188,1.636,3.378,1.653c1.567,0.033,3.102-0.103,3.257-1.925
				c0.034-0.308-0.051-1.005-0.5-1.005c-0.138,0-0.275,0.188-0.448,0.357c-0.189,0.188-0.431,0.357-0.827,0.357
				c-0.688,0-1.068-0.544-1.068-1.176c0-0.664,0.604-1.158,1.276-1.158c1.619,0,2.085,1.874,2.085,3.118
				c0,2.197-1.638,3.678-4.103,3.66c-1.947-0.016-3.55-1.209-3.722-3.115c-0.052-0.512,0.052-1.09,0.327-1.755l-1.274-0.783
				l-1.259,0.783c0.276,0.665,0.379,1.243,0.327,1.755c-0.172,1.906-1.792,3.1-3.739,3.133c-2.447,0-4.103-1.48-4.103-3.678
				c0-1.261,0.501-3.118,2.104-3.118c0.672,0,1.293,0.494,1.293,1.158c0,0.632-0.397,1.176-1.087,1.176
				c-0.378,0-0.637-0.17-0.827-0.357c-0.172-0.17-0.311-0.357-0.465-0.357c-0.414,0-0.517,0.715-0.517,1.005
				c0,1.822,1.981,1.958,3.377,1.925c1.189-0.018,3.447,0.067,3.291-1.653c-0.103-1.141-1.412-1.686-2.446-1.805v-0.034
				c1.086-0.221,3.068-0.782,3.912-2.111h-8.635V220.003z"/>
		</g>
		<g>
			<rect x="94.078" y="217.005" fill="#A8BBE0" width="17.545" height="1.994"/>
			<path fill="#A8BBE0" d="M94.078,220.003h17.545v0.631h-8.617c0.793,1.311,2.861,1.891,3.895,2.111v0.034
				c-1.017,0.119-2.327,0.664-2.431,1.805c-0.154,1.755,2.189,1.636,3.379,1.653c1.567,0.033,3.102-0.103,3.257-1.925
				c0.034-0.308-0.051-1.005-0.5-1.005c-0.139,0-0.275,0.188-0.448,0.357c-0.188,0.188-0.431,0.357-0.827,0.357
				c-0.688,0-1.068-0.544-1.068-1.176c0-0.664,0.604-1.158,1.276-1.158c1.619,0,2.085,1.874,2.085,3.118
				c0,2.197-1.638,3.678-4.103,3.66c-1.947-0.016-3.549-1.209-3.722-3.115c-0.053-0.512,0.052-1.09,0.327-1.755l-1.275-0.783
				l-1.259,0.783c0.276,0.665,0.38,1.243,0.328,1.755c-0.172,1.906-1.792,3.1-3.74,3.133c-2.446,0-4.102-1.48-4.102-3.678
				c0-1.261,0.501-3.118,2.104-3.118c0.672,0,1.292,0.494,1.292,1.158c0,0.632-0.396,1.176-1.086,1.176
				c-0.378,0-0.637-0.17-0.827-0.357c-0.172-0.17-0.311-0.357-0.465-0.357c-0.414,0-0.517,0.715-0.517,1.005
				c0,1.822,1.981,1.958,3.377,1.925c1.189-0.018,3.447,0.067,3.291-1.653c-0.103-1.141-1.412-1.686-2.446-1.805v-0.034
				c1.085-0.221,3.067-0.782,3.912-2.111h-8.635V220.003z"/>
		</g>
		<g>
			<rect x="76.535" y="217.005" fill="#A8BBE0" width="17.544" height="1.994"/>
			<path fill="#A8BBE0" d="M76.535,220.003h17.544v0.631h-8.618c0.794,1.311,2.861,1.891,3.896,2.111v0.034
				c-1.018,0.119-2.327,0.664-2.43,1.805c-0.155,1.755,2.188,1.636,3.377,1.653c1.568,0.033,3.104-0.103,3.258-1.925
				c0.034-0.308-0.051-1.005-0.5-1.005c-0.138,0-0.275,0.188-0.447,0.357c-0.189,0.188-0.433,0.357-0.828,0.357
				c-0.688,0-1.068-0.544-1.068-1.176c0-0.664,0.604-1.158,1.275-1.158c1.619,0,2.086,1.874,2.086,3.118
				c0,2.197-1.638,3.678-4.103,3.66c-1.947-0.016-3.549-1.209-3.722-3.115c-0.053-0.512,0.052-1.09,0.327-1.755l-1.275-0.783
				l-1.259,0.783c0.276,0.665,0.38,1.243,0.328,1.755c-0.173,1.906-1.792,3.1-3.74,3.133c-2.446,0-4.101-1.48-4.101-3.678
				c0-1.261,0.5-3.118,2.103-3.118c0.672,0,1.292,0.494,1.292,1.158c0,0.632-0.396,1.176-1.086,1.176
				c-0.379,0-0.638-0.17-0.827-0.357c-0.172-0.17-0.31-0.357-0.465-0.357c-0.414,0-0.517,0.715-0.517,1.005
				c0,1.822,1.981,1.958,3.377,1.925c1.189-0.018,3.446,0.067,3.291-1.653c-0.103-1.141-1.412-1.686-2.447-1.805v-0.034
				c1.086-0.221,3.068-0.782,3.913-2.111h-8.634V220.003z"/>
		</g>
		<g>
			<rect x="58.991" y="217.005" fill="#A8BBE0" width="17.544" height="1.994"/>
			<path fill="#A8BBE0" d="M58.991,220.003h17.544v0.631h-8.618c0.793,1.311,2.861,1.891,3.895,2.111v0.034
				c-1.017,0.119-2.327,0.664-2.43,1.805c-0.155,1.755,2.189,1.636,3.377,1.653c1.568,0.033,3.103-0.103,3.258-1.925
				c0.034-0.308-0.051-1.005-0.5-1.005c-0.138,0-0.276,0.188-0.448,0.357c-0.189,0.188-0.431,0.357-0.827,0.357
				c-0.688,0-1.069-0.544-1.069-1.176c0-0.664,0.604-1.158,1.276-1.158c1.619,0,2.085,1.874,2.085,3.118
				c0,2.197-1.638,3.678-4.102,3.66c-1.948-0.016-3.55-1.209-3.723-3.115c-0.052-0.512,0.052-1.09,0.328-1.755l-1.275-0.783
				l-1.258,0.783c0.276,0.665,0.379,1.243,0.328,1.755c-0.172,1.906-1.792,3.1-3.74,3.133c-2.447,0-4.101-1.48-4.101-3.678
				c0-1.261,0.5-3.118,2.103-3.118c0.672,0,1.292,0.494,1.292,1.158c0,0.632-0.396,1.176-1.086,1.176
				c-0.379,0-0.638-0.17-0.827-0.357c-0.173-0.17-0.311-0.357-0.465-0.357c-0.414,0-0.517,0.715-0.517,1.005
				c0,1.822,1.982,1.958,3.378,1.925c1.189-0.018,3.447,0.067,3.292-1.653c-0.104-1.141-1.413-1.686-2.448-1.805v-0.034
				c1.086-0.221,3.068-0.782,3.913-2.111h-8.634V220.003z"/>
		</g>
		<g>
			<rect x="41.446" y="217.005" fill="#A8BBE0" width="17.545" height="1.994"/>
			<path fill="#A8BBE0" d="M41.446,220.003h17.545v0.631h-8.618c0.792,1.311,2.861,1.891,3.895,2.111v0.034
				c-1.017,0.119-2.327,0.664-2.43,1.805c-0.155,1.755,2.188,1.636,3.377,1.653c1.568,0.033,3.103-0.103,3.258-1.925
				c0.034-0.308-0.052-1.005-0.5-1.005c-0.138,0-0.275,0.188-0.448,0.357c-0.189,0.188-0.431,0.357-0.827,0.357
				c-0.689,0-1.068-0.544-1.068-1.176c0-0.664,0.603-1.158,1.275-1.158c1.62,0,2.086,1.874,2.086,3.118
				c0,2.197-1.638,3.678-4.103,3.66c-1.947-0.016-3.55-1.209-3.723-3.115c-0.052-0.512,0.052-1.09,0.328-1.755l-1.276-0.783
				l-1.258,0.783c0.276,0.665,0.379,1.243,0.328,1.755c-0.172,1.906-1.792,3.1-3.74,3.133c-2.447,0-4.102-1.48-4.102-3.678
				c0-1.261,0.5-3.118,2.103-3.118c0.672,0,1.292,0.494,1.292,1.158c0,0.632-0.396,1.176-1.085,1.176
				c-0.379,0-0.638-0.17-0.828-0.357c-0.172-0.17-0.31-0.357-0.465-0.357c-0.413,0-0.517,0.715-0.517,1.005
				c0,1.822,1.982,1.958,3.378,1.925c1.188-0.018,3.447,0.067,3.291-1.653c-0.103-1.141-1.413-1.686-2.447-1.805v-0.034
				c1.086-0.221,3.067-0.782,3.912-2.111h-8.634V220.003z"/>
		</g>
		<g>
			<rect x="23.903" y="217.005" fill="#A8BBE0" width="17.544" height="1.994"/>
			<path fill="#A8BBE0" d="M23.903,220.003h17.544v0.631h-8.618c0.793,1.311,2.861,1.891,3.895,2.111v0.034
				c-1.017,0.119-2.327,0.664-2.43,1.805c-0.155,1.755,2.188,1.636,3.377,1.653c1.568,0.033,3.103-0.103,3.258-1.925
				c0.034-0.308-0.051-1.005-0.5-1.005c-0.138,0-0.275,0.188-0.448,0.357c-0.189,0.188-0.431,0.357-0.828,0.357
				c-0.688,0-1.068-0.544-1.068-1.176c0-0.664,0.604-1.158,1.276-1.158c1.62,0,2.085,1.874,2.085,3.118
				c0,2.197-1.638,3.678-4.102,3.66c-1.948-0.016-3.55-1.209-3.723-3.115c-0.052-0.512,0.052-1.09,0.328-1.755l-1.275-0.783
				l-1.258,0.783c0.276,0.665,0.38,1.243,0.328,1.755c-0.172,1.906-1.792,3.1-3.74,3.133c-2.447,0-4.101-1.48-4.101-3.678
				c0-1.261,0.5-3.118,2.102-3.118c0.672,0,1.292,0.494,1.292,1.158c0,0.632-0.396,1.176-1.086,1.176
				c-0.378,0-0.638-0.17-0.827-0.357c-0.172-0.17-0.31-0.357-0.465-0.357c-0.414,0-0.517,0.715-0.517,1.005
				c0,1.822,1.981,1.958,3.377,1.925c1.189-0.018,3.447,0.067,3.292-1.653c-0.103-1.141-1.413-1.686-2.447-1.805v-0.034
				c1.086-0.221,3.068-0.782,3.913-2.111h-8.634V220.003z"/>
		</g>
		<g>
			<rect x="21.91" y="199.712" fill="#A8BBE0" width="1.994" height="17.293"/>
			<path fill="#A8BBE0" d="M20.906,199.712v17.293h-0.631v-8.494c-1.311,0.782-1.891,2.82-2.111,3.84h-0.034
				c-0.119-1.003-0.664-2.294-1.805-2.396c-1.754-0.152-1.635,2.157-1.653,3.33c-0.034,1.546,0.103,3.058,1.925,3.211
				c0.306,0.033,1.004-0.051,1.004-0.493c0-0.137-0.187-0.271-0.357-0.442c-0.188-0.187-0.357-0.424-0.357-0.814
				c0-0.679,0.544-1.054,1.175-1.054c0.664,0,1.158,0.595,1.158,1.258c0,1.596-1.874,2.055-3.118,2.055
				c-2.197,0-3.679-1.614-3.661-4.043c0.016-1.92,1.208-3.499,3.116-3.669c0.511-0.051,1.09,0.051,1.755,0.323l0.783-1.258
				l-0.783-1.24c-0.665,0.272-1.244,0.374-1.755,0.322c-1.907-0.169-3.1-1.767-3.134-3.687c0-2.412,1.481-4.042,3.679-4.042
				c1.261,0,3.118,0.493,3.118,2.072c0,0.663-0.495,1.273-1.158,1.273c-0.631,0-1.175-0.391-1.175-1.07
				c0-0.373,0.17-0.628,0.357-0.814c0.17-0.17,0.357-0.307,0.357-0.459c0-0.407-0.714-0.509-1.004-0.509
				c-1.822,0-1.959,1.953-1.925,3.328c0.018,1.172-0.068,3.397,1.653,3.245c1.141-0.102,1.686-1.394,1.805-2.412h0.034
				c0.221,1.07,0.783,3.024,2.111,3.856v-8.511H20.906z"/>
		</g>
		<g>
			<rect x="21.91" y="182.418" fill="#A8BBE0" width="1.994" height="17.294"/>
			<path fill="#A8BBE0" d="M20.906,182.418v17.294h-0.631v-8.494c-1.311,0.781-1.891,2.819-2.111,3.839h-0.034
				c-0.119-1.003-0.664-2.293-1.805-2.395c-1.754-0.153-1.635,2.156-1.653,3.328c-0.034,1.546,0.103,3.06,1.925,3.212
				c0.306,0.033,1.004-0.051,1.004-0.494c0-0.135-0.187-0.271-0.357-0.44c-0.188-0.187-0.357-0.425-0.357-0.816
				c0-0.679,0.544-1.053,1.175-1.053c0.664,0,1.158,0.595,1.158,1.258c0,1.597-1.874,2.056-3.118,2.056
				c-2.197,0-3.679-1.614-3.661-4.043c0.016-1.921,1.208-3.5,3.116-3.67c0.511-0.051,1.09,0.051,1.755,0.323l0.783-1.258
				l-0.783-1.24c-0.665,0.271-1.244,0.374-1.755,0.323c-1.907-0.17-3.1-1.767-3.134-3.687c0-2.412,1.481-4.043,3.679-4.043
				c1.261,0,3.118,0.492,3.118,2.072c0,0.663-0.495,1.274-1.158,1.274c-0.631,0-1.175-0.391-1.175-1.07
				c0-0.373,0.17-0.629,0.357-0.816c0.17-0.169,0.357-0.306,0.357-0.458c0-0.408-0.714-0.51-1.004-0.51
				c-1.822,0-1.959,1.954-1.925,3.33c0.018,1.172-0.068,3.397,1.653,3.244c1.141-0.102,1.686-1.393,1.805-2.412h0.034
				c0.221,1.07,0.783,3.023,2.111,3.857v-8.512H20.906z"/>
		</g>
		<g>
			<rect x="21.91" y="165.124" fill="#A8BBE0" width="1.994" height="17.294"/>
			<path fill="#A8BBE0" d="M20.906,165.124v17.294h-0.631v-8.494c-1.311,0.781-1.891,2.82-2.111,3.839h-0.034
				c-0.119-1.002-0.664-2.294-1.805-2.396c-1.754-0.152-1.635,2.158-1.653,3.33c-0.034,1.546,0.103,3.058,1.925,3.211
				c0.306,0.033,1.004-0.051,1.004-0.493c0-0.136-0.187-0.271-0.357-0.441c-0.188-0.187-0.357-0.425-0.357-0.815
				c0-0.679,0.544-1.053,1.175-1.053c0.664,0,1.158,0.594,1.158,1.257c0,1.597-1.874,2.056-3.118,2.056
				c-2.197,0-3.679-1.614-3.661-4.043c0.016-1.92,1.208-3.5,3.116-3.67c0.511-0.051,1.09,0.051,1.755,0.323l0.783-1.257
				l-0.783-1.241c-0.665,0.272-1.244,0.375-1.755,0.323c-1.907-0.17-3.1-1.767-3.134-3.687c0-2.412,1.481-4.043,3.679-4.043
				c1.261,0,3.118,0.493,3.118,2.072c0,0.663-0.495,1.274-1.158,1.274c-0.631,0-1.175-0.391-1.175-1.071
				c0-0.372,0.17-0.628,0.357-0.814c0.17-0.17,0.357-0.306,0.357-0.458c0-0.408-0.714-0.51-1.004-0.51
				c-1.822,0-1.959,1.953-1.925,3.329c0.018,1.172-0.068,3.397,1.653,3.244c1.141-0.102,1.686-1.393,1.805-2.412h0.034
				c0.221,1.07,0.783,3.024,2.111,3.857v-8.512H20.906z"/>
		</g>
		<g>
			<rect x="21.91" y="147.83" fill="#A8BBE0" width="1.994" height="17.295"/>
			<path fill="#A8BBE0" d="M20.906,147.83v17.295h-0.631v-8.495c-1.311,0.781-1.891,2.819-2.111,3.839h-0.034
				c-0.119-1.002-0.664-2.293-1.805-2.395c-1.754-0.153-1.635,2.156-1.653,3.329c-0.034,1.546,0.103,3.059,1.925,3.211
				c0.306,0.034,1.004-0.05,1.004-0.493c0-0.136-0.187-0.271-0.357-0.441c-0.188-0.187-0.357-0.425-0.357-0.815
				c0-0.679,0.544-1.054,1.175-1.054c0.664,0,1.158,0.596,1.158,1.258c0,1.598-1.874,2.057-3.118,2.057
				c-2.197,0-3.679-1.615-3.661-4.044c0.016-1.921,1.208-3.499,3.116-3.67c0.511-0.051,1.09,0.052,1.755,0.323l0.783-1.258
				l-0.783-1.239c-0.665,0.271-1.244,0.373-1.755,0.322c-1.907-0.17-3.1-1.767-3.134-3.686c0-2.413,1.481-4.044,3.679-4.044
				c1.261,0,3.118,0.493,3.118,2.073c0,0.662-0.495,1.273-1.158,1.273c-0.631,0-1.175-0.391-1.175-1.07
				c0-0.373,0.17-0.629,0.357-0.815c0.17-0.17,0.357-0.306,0.357-0.459c0-0.407-0.714-0.509-1.004-0.509
				c-1.822,0-1.959,1.953-1.925,3.329c0.018,1.172-0.068,3.398,1.653,3.244c1.141-0.102,1.686-1.393,1.805-2.412h0.034
				c0.221,1.07,0.783,3.024,2.111,3.857v-8.512H20.906z"/>
		</g>
		<g>
			<rect x="21.91" y="130.537" fill="#A8BBE0" width="1.994" height="17.293"/>
			<path fill="#A8BBE0" d="M20.906,130.537v17.293h-0.631v-8.494c-1.311,0.781-1.891,2.82-2.111,3.839h-0.034
				c-0.119-1.002-0.664-2.293-1.805-2.395c-1.754-0.152-1.635,2.157-1.653,3.329c-0.034,1.546,0.103,3.059,1.925,3.212
				c0.306,0.033,1.004-0.052,1.004-0.493c0-0.137-0.187-0.272-0.357-0.442c-0.188-0.187-0.357-0.424-0.357-0.814
				c0-0.68,0.544-1.054,1.175-1.054c0.664,0,1.158,0.594,1.158,1.258c0,1.596-1.874,2.055-3.118,2.055
				c-2.197,0-3.679-1.614-3.661-4.043c0.016-1.92,1.208-3.499,3.116-3.67c0.511-0.051,1.09,0.052,1.755,0.324l0.783-1.258
				l-0.783-1.241c-0.665,0.273-1.244,0.374-1.755,0.323c-1.907-0.169-3.1-1.767-3.134-3.687c0-2.412,1.481-4.042,3.679-4.042
				c1.261,0,3.118,0.492,3.118,2.071c0,0.664-0.495,1.274-1.158,1.274c-0.631,0-1.175-0.391-1.175-1.07
				c0-0.373,0.17-0.628,0.357-0.815c0.17-0.17,0.357-0.306,0.357-0.459c0-0.407-0.714-0.509-1.004-0.509
				c-1.822,0-1.959,1.954-1.925,3.329c0.018,1.172-0.068,3.397,1.653,3.245c1.141-0.102,1.686-1.394,1.805-2.412h0.034
				c0.221,1.07,0.783,3.024,2.111,3.856v-8.511H20.906z"/>
		</g>
		<g>
			<rect x="21.91" y="113.243" fill="#A8BBE0" width="1.994" height="17.294"/>
			<path fill="#A8BBE0" d="M20.906,113.243v17.294h-0.631v-8.495c-1.311,0.781-1.891,2.82-2.111,3.839h-0.034
				c-0.119-1.003-0.664-2.294-1.805-2.396c-1.754-0.153-1.635,2.157-1.653,3.329c-0.034,1.546,0.103,3.059,1.925,3.211
				c0.306,0.034,1.004-0.05,1.004-0.493c0-0.135-0.187-0.271-0.357-0.44c-0.188-0.187-0.357-0.426-0.357-0.816
				c0-0.679,0.544-1.053,1.175-1.053c0.664,0,1.158,0.595,1.158,1.258c0,1.597-1.874,2.056-3.118,2.056
				c-2.197,0-3.679-1.615-3.661-4.044c0.016-1.92,1.208-3.5,3.116-3.669c0.511-0.051,1.09,0.052,1.755,0.323l0.783-1.257
				l-0.783-1.24c-0.665,0.271-1.244,0.374-1.755,0.323c-1.907-0.17-3.1-1.767-3.134-3.687c0-2.412,1.481-4.043,3.679-4.043
				c1.261,0,3.118,0.493,3.118,2.073c0,0.663-0.495,1.273-1.158,1.273c-0.631,0-1.175-0.39-1.175-1.07
				c0-0.374,0.17-0.628,0.357-0.816c0.17-0.169,0.357-0.305,0.357-0.458c0-0.408-0.714-0.51-1.004-0.51
				c-1.822,0-1.959,1.954-1.925,3.33c0.018,1.172-0.068,3.398,1.653,3.245c1.141-0.102,1.686-1.393,1.805-2.413h0.034
				c0.221,1.07,0.783,3.024,2.111,3.857v-8.511H20.906z"/>
		</g>
		<g>
			<rect x="21.91" y="95.949" fill="#A8BBE0" width="1.994" height="17.294"/>
			<path fill="#A8BBE0" d="M20.906,95.949v17.294h-0.631v-8.494c-1.311,0.781-1.891,2.82-2.111,3.839h-0.034
				c-0.119-1.003-0.664-2.294-1.805-2.396c-1.754-0.153-1.635,2.158-1.653,3.329c-0.034,1.546,0.103,3.059,1.925,3.211
				c0.306,0.034,1.004-0.05,1.004-0.493c0-0.136-0.187-0.271-0.357-0.441c-0.188-0.187-0.357-0.425-0.357-0.815
				c0-0.679,0.544-1.053,1.175-1.053c0.664,0,1.158,0.595,1.158,1.257c0,1.597-1.874,2.056-3.118,2.056
				c-2.197,0-3.679-1.614-3.661-4.043c0.016-1.92,1.208-3.5,3.116-3.67c0.511-0.051,1.09,0.052,1.755,0.323l0.783-1.257l-0.783-1.24
				c-0.665,0.272-1.244,0.374-1.755,0.323c-1.907-0.17-3.1-1.767-3.134-3.687c0-2.412,1.481-4.043,3.679-4.043
				c1.261,0,3.118,0.493,3.118,2.073c0,0.663-0.495,1.274-1.158,1.274c-0.631,0-1.175-0.391-1.175-1.07
				c0-0.373,0.17-0.629,0.357-0.815c0.17-0.17,0.357-0.306,0.357-0.458c0-0.408-0.714-0.51-1.004-0.51
				c-1.822,0-1.959,1.954-1.925,3.33c0.018,1.171-0.068,3.397,1.653,3.244c1.141-0.102,1.686-1.393,1.805-2.413h0.034
				c0.221,1.07,0.783,3.024,2.111,3.857v-8.512H20.906z"/>
		</g>
		<g>
			<rect x="21.91" y="78.655" fill="#A8BBE0" width="1.994" height="17.294"/>
			<path fill="#A8BBE0" d="M20.906,78.655v17.294h-0.631v-8.494c-1.311,0.781-1.891,2.82-2.111,3.839h-0.034
				c-0.119-1.002-0.664-2.293-1.805-2.395c-1.754-0.153-1.635,2.157-1.653,3.329c-0.034,1.546,0.103,3.058,1.925,3.211
				c0.306,0.033,1.004-0.051,1.004-0.494c0-0.136-0.187-0.271-0.357-0.441c-0.188-0.187-0.357-0.425-0.357-0.815
				c0-0.679,0.544-1.053,1.175-1.053c0.664,0,1.158,0.595,1.158,1.258c0,1.597-1.874,2.056-3.118,2.056
				c-2.197,0-3.679-1.614-3.661-4.043c0.016-1.92,1.208-3.5,3.116-3.669c0.511-0.051,1.09,0.051,1.755,0.323l0.783-1.257
				l-0.783-1.24c-0.665,0.271-1.244,0.374-1.755,0.322c-1.907-0.169-3.1-1.767-3.134-3.686c0-2.413,1.481-4.043,3.679-4.043
				c1.261,0,3.118,0.493,3.118,2.073c0,0.662-0.495,1.273-1.158,1.273c-0.631,0-1.175-0.391-1.175-1.07
				c0-0.373,0.17-0.628,0.357-0.815c0.17-0.17,0.357-0.305,0.357-0.458c0-0.408-0.714-0.509-1.004-0.509
				c-1.822,0-1.959,1.953-1.925,3.33c0.018,1.171-0.068,3.397,1.653,3.245c1.141-0.102,1.686-1.393,1.805-2.413h0.034
				c0.221,1.071,0.783,3.024,2.111,3.857v-8.511H20.906z"/>
		</g>
		<g>
			<rect x="21.91" y="61.361" fill="#A8BBE0" width="1.994" height="17.294"/>
			<path fill="#A8BBE0" d="M20.906,61.361v17.294h-0.631v-8.494c-1.311,0.781-1.891,2.82-2.111,3.839h-0.034
				c-0.119-1.002-0.664-2.293-1.805-2.395c-1.754-0.153-1.635,2.157-1.653,3.329c-0.034,1.546,0.103,3.059,1.925,3.211
				c0.306,0.034,1.004-0.051,1.004-0.493c0-0.136-0.187-0.271-0.357-0.441c-0.188-0.187-0.357-0.425-0.357-0.815
				c0-0.679,0.544-1.053,1.175-1.053c0.664,0,1.158,0.594,1.158,1.257c0,1.597-1.874,2.056-3.118,2.056
				c-2.197,0-3.679-1.614-3.661-4.043c0.016-1.92,1.208-3.499,3.116-3.669c0.511-0.051,1.09,0.051,1.755,0.323l0.783-1.257
				l-0.783-1.241c-0.665,0.272-1.244,0.375-1.755,0.323c-1.907-0.17-3.1-1.767-3.134-3.687c0-2.412,1.481-4.043,3.679-4.043
				c1.261,0,3.118,0.493,3.118,2.073c0,0.663-0.495,1.274-1.158,1.274c-0.631,0-1.175-0.391-1.175-1.071
				c0-0.373,0.17-0.628,0.357-0.815c0.17-0.169,0.357-0.306,0.357-0.458c0-0.408-0.714-0.51-1.004-0.51
				c-1.822,0-1.959,1.954-1.925,3.329c0.018,1.172-0.068,3.398,1.653,3.245c1.141-0.101,1.686-1.393,1.805-2.412h0.034
				c0.221,1.07,0.783,3.024,2.111,3.857v-8.511H20.906z"/>
		</g>
		<g>
			<rect x="21.91" y="44.067" fill="#A8BBE0" width="1.994" height="17.294"/>
			<path fill="#A8BBE0" d="M20.906,44.067v17.294h-0.631v-8.494c-1.311,0.781-1.891,2.82-2.111,3.839h-0.034
				c-0.119-1.002-0.664-2.293-1.805-2.395c-1.754-0.153-1.635,2.157-1.653,3.33c-0.034,1.546,0.103,3.058,1.925,3.211
				c0.306,0.034,1.004-0.05,1.004-0.493c0-0.136-0.187-0.271-0.357-0.441c-0.188-0.187-0.357-0.425-0.357-0.815
				c0-0.679,0.544-1.053,1.175-1.053c0.664,0,1.158,0.594,1.158,1.258c0,1.596-1.874,2.055-3.118,2.055
				c-2.197,0-3.679-1.614-3.661-4.043c0.016-1.92,1.208-3.5,3.116-3.67c0.511-0.051,1.09,0.051,1.755,0.323l0.783-1.257
				l-0.783-1.241c-0.665,0.272-1.244,0.375-1.755,0.323c-1.907-0.17-3.1-1.767-3.134-3.687c0-2.412,1.481-4.043,3.679-4.043
				c1.261,0,3.118,0.493,3.118,2.072c0,0.663-0.495,1.274-1.158,1.274c-0.631,0-1.175-0.391-1.175-1.07
				c0-0.373,0.17-0.628,0.357-0.815c0.17-0.17,0.357-0.306,0.357-0.458c0-0.408-0.714-0.509-1.004-0.509
				c-1.822,0-1.959,1.953-1.925,3.329c0.018,1.172-0.068,3.397,1.653,3.244c1.141-0.102,1.686-1.393,1.805-2.412h0.034
				c0.221,1.07,0.783,3.024,2.111,3.857v-8.512H20.906z"/>
		</g>
		<g>
			<rect x="21.91" y="26.774" fill="#A8BBE0" width="1.994" height="17.294"/>
			<path fill="#A8BBE0" d="M20.906,26.774v17.294h-0.631v-8.494c-1.311,0.781-1.891,2.819-2.111,3.839h-0.034
				c-0.119-1.002-0.664-2.293-1.805-2.395c-1.754-0.153-1.635,2.157-1.653,3.329c-0.034,1.546,0.103,3.059,1.925,3.211
				c0.306,0.033,1.004-0.051,1.004-0.493c0-0.136-0.187-0.271-0.357-0.442c-0.188-0.187-0.357-0.425-0.357-0.815
				c0-0.679,0.544-1.053,1.175-1.053c0.664,0,1.158,0.595,1.158,1.258c0,1.597-1.874,2.056-3.118,2.056
				c-2.197,0-3.679-1.614-3.661-4.043c0.016-1.92,1.208-3.5,3.116-3.67c0.511-0.051,1.09,0.051,1.755,0.324l0.783-1.257
				l-0.783-1.241c-0.665,0.272-1.244,0.374-1.755,0.323c-1.907-0.169-3.1-1.766-3.134-3.686c0-2.413,1.481-4.043,3.679-4.043
				c1.261,0,3.118,0.493,3.118,2.072c0,0.663-0.495,1.274-1.158,1.274c-0.631,0-1.175-0.391-1.175-1.07
				c0-0.373,0.17-0.628,0.357-0.815c0.17-0.169,0.357-0.306,0.357-0.458c0-0.408-0.714-0.509-1.004-0.509
				c-1.822,0-1.959,1.954-1.925,3.329c0.018,1.172-0.068,3.398,1.653,3.245c1.141-0.102,1.686-1.393,1.805-2.412h0.034
				c0.221,1.07,0.783,3.024,2.111,3.856v-8.511H20.906z"/>
		</g>
		<g>
			<rect x="23.903" y="24.781" fill="#A8BBE0" width="17.544" height="1.993"/>
			<path fill="#A8BBE0" d="M41.447,23.777H23.903v-0.631h8.617c-0.792-1.311-2.861-1.89-3.895-2.111V21
				c1.017-0.119,2.327-0.664,2.43-1.804c0.155-1.755-2.188-1.635-3.377-1.653c-1.568-0.034-3.103,0.103-3.258,1.925
				c-0.034,0.307,0.052,1.004,0.5,1.004c0.138,0,0.275-0.187,0.448-0.357c0.189-0.188,0.431-0.357,0.827-0.357
				c0.689,0,1.069,0.545,1.069,1.175c0,0.664-0.604,1.158-1.276,1.158c-1.62,0-2.085-1.874-2.085-3.118
				c0-2.197,1.638-3.679,4.102-3.661c1.948,0.016,3.55,1.209,3.723,3.116c0.052,0.511-0.052,1.089-0.328,1.754l1.276,0.784
				l1.258-0.784c-0.276-0.665-0.38-1.244-0.328-1.754c0.172-1.907,1.792-3.1,3.74-3.134c2.447,0,4.101,1.481,4.101,3.679
				c0,1.261-0.5,3.118-2.102,3.118c-0.672,0-1.292-0.495-1.292-1.158c0-0.63,0.396-1.175,1.086-1.175
				c0.378,0,0.637,0.17,0.827,0.357c0.172,0.17,0.31,0.357,0.465,0.357c0.413,0,0.517-0.714,0.517-1.004
				c0-1.822-1.982-1.959-3.377-1.925c-1.189,0.018-3.447-0.067-3.292,1.653c0.103,1.141,1.413,1.685,2.447,1.804v0.034
				c-1.085,0.221-3.067,0.784-3.912,2.111h8.634V23.777z"/>
		</g>
		<g>
			<rect x="41.447" y="24.781" fill="#A8BBE0" width="17.544" height="1.993"/>
			<path fill="#A8BBE0" d="M58.991,23.777H41.447v-0.631h8.618c-0.793-1.311-2.861-1.89-3.895-2.111V21
				c1.017-0.119,2.327-0.664,2.43-1.804c0.155-1.755-2.188-1.635-3.377-1.653c-1.568-0.034-3.103,0.103-3.258,1.925
				c-0.034,0.307,0.051,1.004,0.5,1.004c0.138,0,0.275-0.187,0.448-0.357c0.189-0.188,0.431-0.357,0.828-0.357
				c0.688,0,1.068,0.545,1.068,1.175c0,0.664-0.604,1.158-1.276,1.158c-1.62,0-2.085-1.874-2.085-3.118
				c0-2.197,1.638-3.679,4.102-3.661c1.948,0.016,3.55,1.209,3.723,3.116c0.051,0.511-0.052,1.089-0.328,1.754l1.275,0.784
				l1.258-0.784c-0.276-0.665-0.379-1.244-0.328-1.754c0.172-1.907,1.792-3.1,3.74-3.134c2.447,0,4.101,1.481,4.101,3.679
				c0,1.261-0.5,3.118-2.102,3.118c-0.672,0-1.292-0.495-1.292-1.158c0-0.63,0.396-1.175,1.086-1.175
				c0.378,0,0.638,0.17,0.827,0.357c0.172,0.17,0.311,0.357,0.465,0.357c0.414,0,0.517-0.714,0.517-1.004
				c0-1.822-1.981-1.959-3.377-1.925c-1.189,0.018-3.447-0.067-3.292,1.653c0.103,1.141,1.413,1.685,2.447,1.804v0.034
				c-1.086,0.221-3.068,0.784-3.913,2.111h8.634V23.777z"/>
		</g>
		<g>
			<rect x="58.991" y="24.781" fill="#A8BBE0" width="17.544" height="1.993"/>
			<path fill="#A8BBE0" d="M76.536,23.777H58.991v-0.631h8.618c-0.792-1.311-2.861-1.89-3.895-2.111V21
				c1.017-0.119,2.327-0.664,2.43-1.804c0.155-1.755-2.188-1.635-3.378-1.653c-1.568-0.034-3.103,0.103-3.257,1.925
				c-0.034,0.307,0.051,1.004,0.5,1.004c0.138,0,0.275-0.187,0.448-0.357c0.189-0.188,0.431-0.357,0.827-0.357
				c0.688,0,1.068,0.545,1.068,1.175c0,0.664-0.603,1.158-1.276,1.158c-1.62,0-2.085-1.874-2.085-3.118
				c0-2.197,1.638-3.679,4.102-3.661c1.948,0.016,3.55,1.209,3.723,3.116c0.051,0.511-0.053,1.089-0.328,1.754l1.276,0.784
				l1.258-0.784c-0.276-0.665-0.38-1.244-0.328-1.754c0.172-1.907,1.792-3.1,3.739-3.134c2.447,0,4.102,1.481,4.102,3.679
				c0,1.261-0.5,3.118-2.103,3.118c-0.672,0-1.292-0.495-1.292-1.158c0-0.63,0.396-1.175,1.086-1.175
				c0.378,0,0.638,0.17,0.827,0.357c0.172,0.17,0.31,0.357,0.465,0.357c0.414,0,0.517-0.714,0.517-1.004
				c0-1.822-1.981-1.959-3.377-1.925c-1.189,0.018-3.447-0.067-3.292,1.653c0.104,1.141,1.413,1.685,2.447,1.804v0.034
				c-1.086,0.221-3.068,0.784-3.913,2.111h8.634V23.777z"/>
		</g>
		<g>
			<rect x="76.535" y="24.781" fill="#A8BBE0" width="17.544" height="1.993"/>
			<path fill="#A8BBE0" d="M94.079,23.777H76.535v-0.631h8.618c-0.793-1.311-2.861-1.89-3.896-2.111V21
				c1.018-0.119,2.327-0.664,2.43-1.804c0.155-1.755-2.188-1.635-3.377-1.653c-1.569-0.034-3.103,0.103-3.258,1.925
				c-0.034,0.307,0.051,1.004,0.5,1.004c0.138,0,0.276-0.187,0.448-0.357c0.188-0.188,0.431-0.357,0.827-0.357
				c0.689,0,1.068,0.545,1.068,1.175c0,0.664-0.604,1.158-1.275,1.158c-1.62,0-2.086-1.874-2.086-3.118
				c0-2.197,1.639-3.679,4.102-3.661c1.948,0.016,3.551,1.209,3.724,3.116c0.052,0.511-0.053,1.089-0.328,1.754l1.275,0.784
				l1.259-0.784c-0.276-0.665-0.38-1.244-0.327-1.754c0.172-1.907,1.792-3.1,3.739-3.134c2.447,0,4.101,1.481,4.101,3.679
				c0,1.261-0.499,3.118-2.102,3.118c-0.673,0-1.293-0.495-1.293-1.158c0-0.63,0.396-1.175,1.086-1.175
				c0.379,0,0.638,0.17,0.828,0.357c0.172,0.17,0.31,0.357,0.465,0.357c0.413,0,0.517-0.714,0.517-1.004
				c0-1.822-1.981-1.959-3.378-1.925c-1.188,0.018-3.446-0.067-3.291,1.653c0.103,1.141,1.412,1.685,2.447,1.804v0.034
				c-1.086,0.221-3.068,0.784-3.913,2.111h8.634V23.777z"/>
		</g>
		<g>
			<rect x="94.079" y="24.781" fill="#A8BBE0" width="17.544" height="1.993"/>
			<path fill="#A8BBE0" d="M111.623,23.777H94.079v-0.631h8.618c-0.793-1.311-2.861-1.89-3.896-2.111V21
				c1.018-0.119,2.327-0.664,2.43-1.804c0.156-1.755-2.188-1.635-3.377-1.653c-1.568-0.034-3.103,0.103-3.258,1.925
				c-0.034,0.307,0.052,1.004,0.501,1.004c0.137,0,0.275-0.187,0.447-0.357c0.189-0.188,0.431-0.357,0.828-0.357
				c0.688,0,1.068,0.545,1.068,1.175c0,0.664-0.604,1.158-1.276,1.158c-1.62,0-2.086-1.874-2.086-3.118
				c0-2.197,1.639-3.679,4.102-3.661c1.949,0.016,3.551,1.209,3.724,3.116c0.051,0.511-0.053,1.089-0.328,1.754l1.275,0.784
				l1.259-0.784c-0.276-0.665-0.38-1.244-0.327-1.754c0.172-1.907,1.791-3.1,3.739-3.134c2.447,0,4.101,1.481,4.101,3.679
				c0,1.261-0.499,3.118-2.102,3.118c-0.673,0-1.293-0.495-1.293-1.158c0-0.63,0.396-1.175,1.086-1.175
				c0.379,0,0.638,0.17,0.827,0.357c0.173,0.17,0.31,0.357,0.466,0.357c0.413,0,0.517-0.714,0.517-1.004
				c0-1.822-1.981-1.959-3.377-1.925c-1.189,0.018-3.448-0.067-3.293,1.653c0.104,1.141,1.414,1.685,2.448,1.804v0.034
				c-1.086,0.221-3.068,0.784-3.913,2.111h8.634V23.777z"/>
		</g>
		<g>
			<rect x="111.623" y="24.781" fill="#A8BBE0" width="17.545" height="1.993"/>
			<path fill="#A8BBE0" d="M129.168,23.777h-17.545v-0.631h8.617c-0.792-1.311-2.86-1.89-3.894-2.111V21
				c1.017-0.119,2.326-0.664,2.43-1.804c0.155-1.755-2.188-1.635-3.378-1.653c-1.568-0.034-3.103,0.103-3.257,1.925
				c-0.035,0.307,0.051,1.004,0.5,1.004c0.137,0,0.275-0.187,0.447-0.357c0.189-0.188,0.431-0.357,0.827-0.357
				c0.688,0,1.069,0.545,1.069,1.175c0,0.664-0.604,1.158-1.276,1.158c-1.62,0-2.086-1.874-2.086-3.118
				c0-2.197,1.639-3.679,4.103-3.661c1.948,0.016,3.55,1.209,3.723,3.116c0.052,0.511-0.052,1.089-0.327,1.754l1.274,0.784
				l1.258-0.784c-0.274-0.665-0.378-1.244-0.326-1.754c0.171-1.907,1.791-3.1,3.739-3.134c2.447,0,4.102,1.481,4.102,3.679
				c0,1.261-0.5,3.118-2.103,3.118c-0.672,0-1.293-0.495-1.293-1.158c0-0.63,0.396-1.175,1.086-1.175
				c0.379,0,0.638,0.17,0.827,0.357c0.173,0.17,0.311,0.357,0.466,0.357c0.413,0,0.517-0.714,0.517-1.004
				c0-1.822-1.981-1.959-3.378-1.925c-1.188,0.018-3.447-0.067-3.291,1.653c0.103,1.141,1.413,1.685,2.447,1.804v0.034
				c-1.086,0.221-3.067,0.784-3.913,2.111h8.635V23.777z"/>
		</g>
		<g>
			<rect x="129.167" y="26.774" fill="#A8BBE0" width="1.993" height="17.294"/>
			<path fill="#A8BBE0" d="M132.164,44.068V26.774h0.632v8.495c1.31-0.781,1.89-2.82,2.111-3.839h0.033
				c0.119,1.002,0.664,2.294,1.805,2.395c1.755,0.153,1.636-2.157,1.653-3.329c0.034-1.546-0.103-3.059-1.925-3.211
				c-0.308-0.034-1.004,0.051-1.004,0.493c0,0.136,0.187,0.272,0.356,0.442c0.188,0.186,0.357,0.424,0.357,0.815
				c0,0.679-0.544,1.053-1.175,1.053c-0.665,0-1.158-0.595-1.158-1.257c0-1.597,1.873-2.056,3.117-2.056
				c2.197,0,3.679,1.615,3.661,4.044c-0.017,1.92-1.21,3.499-3.116,3.669c-0.511,0.051-1.09-0.052-1.754-0.323l-0.784,1.257
				l0.784,1.24c0.664-0.271,1.243-0.374,1.754-0.323c1.906,0.169,3.1,1.766,3.134,3.686c0,2.413-1.481,4.043-3.679,4.043
				c-1.261,0-3.117-0.493-3.117-2.072c0-0.663,0.493-1.274,1.158-1.274c0.631,0,1.175,0.391,1.175,1.07
				c0,0.373-0.17,0.628-0.357,0.815c-0.17,0.17-0.356,0.306-0.356,0.458c0,0.408,0.714,0.509,1.004,0.509
				c1.822,0,1.959-1.953,1.925-3.329c-0.018-1.172,0.067-3.398-1.653-3.245c-1.141,0.102-1.686,1.393-1.805,2.412h-0.033
				c-0.222-1.07-0.783-3.023-2.111-3.856v8.511H132.164z"/>
		</g>
		<g>
			<rect x="129.167" y="44.068" fill="#A8BBE0" width="1.993" height="17.294"/>
			<path fill="#A8BBE0" d="M132.164,61.362V44.068h0.632v8.495c1.31-0.781,1.89-2.82,2.111-3.839h0.033
				c0.119,1.002,0.664,2.294,1.805,2.396c1.755,0.152,1.636-2.158,1.653-3.33c0.034-1.546-0.103-3.059-1.925-3.211
				c-0.308-0.034-1.004,0.05-1.004,0.493c0,0.136,0.187,0.272,0.356,0.441c0.188,0.187,0.357,0.425,0.357,0.815
				c0,0.679-0.544,1.054-1.175,1.054c-0.665,0-1.158-0.595-1.158-1.258c0-1.596,1.873-2.056,3.117-2.056
				c2.197,0,3.679,1.615,3.661,4.043c-0.017,1.92-1.21,3.499-3.116,3.67c-0.511,0.051-1.09-0.052-1.754-0.323l-0.784,1.257
				l0.784,1.24c0.664-0.272,1.243-0.374,1.754-0.323c1.906,0.169,3.1,1.766,3.134,3.687c0,2.412-1.481,4.042-3.679,4.042
				c-1.261,0-3.117-0.493-3.117-2.072c0-0.663,0.493-1.274,1.158-1.274c0.631,0,1.175,0.391,1.175,1.07
				c0,0.373-0.17,0.629-0.357,0.815c-0.17,0.17-0.356,0.306-0.356,0.459c0,0.407,0.714,0.509,1.004,0.509
				c1.822,0,1.959-1.953,1.925-3.33c-0.018-1.172,0.067-3.397-1.653-3.244c-1.141,0.102-1.686,1.393-1.805,2.412h-0.033
				c-0.222-1.07-0.783-3.024-2.111-3.857v8.511H132.164z"/>
		</g>
		<g>
			<rect x="129.167" y="61.362" fill="#A8BBE0" width="1.993" height="17.294"/>
			<path fill="#A8BBE0" d="M132.164,78.656V61.362h0.632v8.495c1.31-0.781,1.89-2.82,2.111-3.839h0.033
				c0.119,1.002,0.664,2.293,1.805,2.395c1.755,0.153,1.636-2.157,1.653-3.33c0.034-1.546-0.103-3.058-1.925-3.211
				c-0.308-0.034-1.004,0.051-1.004,0.493c0,0.136,0.187,0.271,0.356,0.441c0.188,0.187,0.357,0.425,0.357,0.815
				c0,0.679-0.544,1.054-1.175,1.054c-0.665,0-1.158-0.595-1.158-1.258c0-1.597,1.873-2.056,3.117-2.056
				c2.197,0,3.679,1.615,3.661,4.044c-0.017,1.92-1.21,3.499-3.116,3.669c-0.511,0.051-1.09-0.051-1.754-0.323l-0.784,1.258
				l0.784,1.24c0.664-0.271,1.243-0.374,1.754-0.322c1.906,0.169,3.1,1.766,3.134,3.686c0,2.412-1.481,4.042-3.679,4.042
				c-1.261,0-3.117-0.493-3.117-2.072c0-0.662,0.493-1.274,1.158-1.274c0.631,0,1.175,0.391,1.175,1.07
				c0,0.374-0.17,0.628-0.357,0.815c-0.17,0.17-0.356,0.306-0.356,0.459c0,0.407,0.714,0.509,1.004,0.509
				c1.822,0,1.959-1.953,1.925-3.329c-0.018-1.172,0.067-3.398-1.653-3.245c-1.141,0.102-1.686,1.393-1.805,2.413h-0.033
				c-0.222-1.071-0.783-3.024-2.111-3.857v8.511H132.164z"/>
		</g>
		<g>
			<rect x="129.167" y="78.656" fill="#A8BBE0" width="1.993" height="17.294"/>
			<path fill="#A8BBE0" d="M132.164,95.95V78.656h0.632v8.495c1.31-0.781,1.89-2.82,2.111-3.839h0.033
				c0.119,1.002,0.664,2.294,1.805,2.396c1.755,0.153,1.636-2.158,1.653-3.33c0.034-1.546-0.103-3.058-1.925-3.211
				c-0.308-0.034-1.004,0.051-1.004,0.493c0,0.136,0.187,0.272,0.356,0.441c0.188,0.187,0.357,0.425,0.357,0.816
				c0,0.679-0.544,1.053-1.175,1.053c-0.665,0-1.158-0.595-1.158-1.257c0-1.597,1.873-2.056,3.117-2.056
				c2.197,0,3.679,1.615,3.661,4.044c-0.017,1.919-1.21,3.499-3.116,3.669c-0.511,0.051-1.09-0.052-1.754-0.323l-0.784,1.257
				l0.784,1.24c0.664-0.272,1.243-0.374,1.754-0.323c1.906,0.169,3.1,1.766,3.134,3.687c0,2.412-1.481,4.042-3.679,4.042
				c-1.261,0-3.117-0.493-3.117-2.072c0-0.663,0.493-1.274,1.158-1.274c0.631,0,1.175,0.391,1.175,1.071
				c0,0.374-0.17,0.628-0.357,0.815c-0.17,0.17-0.356,0.306-0.356,0.458c0,0.408,0.714,0.509,1.004,0.509
				c1.822,0,1.959-1.953,1.925-3.329c-0.018-1.172,0.067-3.398-1.653-3.245c-1.141,0.102-1.686,1.393-1.805,2.412h-0.033
				c-0.222-1.07-0.783-3.024-2.111-3.856v8.511H132.164z"/>
		</g>
		<g>
			<rect x="129.167" y="95.95" fill="#A8BBE0" width="1.993" height="17.294"/>
			<path fill="#A8BBE0" d="M132.164,113.244V95.95h0.632v8.495c1.31-0.782,1.89-2.82,2.111-3.839h0.033
				c0.119,1.002,0.664,2.293,1.805,2.396c1.755,0.153,1.636-2.158,1.653-3.33c0.034-1.546-0.103-3.058-1.925-3.21
				c-0.308-0.034-1.004,0.05-1.004,0.493c0,0.136,0.187,0.271,0.356,0.441c0.188,0.187,0.357,0.425,0.357,0.816
				c0,0.679-0.544,1.053-1.175,1.053c-0.665,0-1.158-0.595-1.158-1.258c0-1.596,1.873-2.056,3.117-2.056
				c2.197,0,3.679,1.615,3.661,4.043c-0.017,1.92-1.21,3.5-3.116,3.669c-0.511,0.051-1.09-0.051-1.754-0.323l-0.784,1.257
				l0.784,1.24c0.664-0.272,1.243-0.374,1.754-0.323c1.906,0.169,3.1,1.766,3.134,3.687c0,2.412-1.481,4.042-3.679,4.042
				c-1.261,0-3.117-0.493-3.117-2.072c0-0.663,0.493-1.274,1.158-1.274c0.631,0,1.175,0.391,1.175,1.07
				c0,0.374-0.17,0.628-0.357,0.816c-0.17,0.17-0.356,0.306-0.356,0.458c0,0.408,0.714,0.509,1.004,0.509
				c1.822,0,1.959-1.953,1.925-3.33c-0.018-1.172,0.067-3.397-1.653-3.244c-1.141,0.102-1.686,1.393-1.805,2.412h-0.033
				c-0.222-1.07-0.783-3.024-2.111-3.857v8.511H132.164z"/>
		</g>
		<g>
			<rect x="129.167" y="113.243" fill="#A8BBE0" width="1.993" height="17.295"/>
			<path fill="#A8BBE0" d="M132.164,130.538v-17.295h0.632v8.495c1.31-0.781,1.89-2.82,2.111-3.839h0.033
				c0.119,1.003,0.664,2.294,1.805,2.396c1.755,0.153,1.636-2.158,1.653-3.329c0.034-1.546-0.103-3.059-1.925-3.211
				c-0.308-0.034-1.004,0.051-1.004,0.493c0,0.136,0.187,0.271,0.356,0.442c0.188,0.187,0.357,0.424,0.357,0.815
				c0,0.679-0.544,1.053-1.175,1.053c-0.665,0-1.158-0.595-1.158-1.257c0-1.597,1.873-2.056,3.117-2.056
				c2.197,0,3.679,1.615,3.661,4.044c-0.017,1.92-1.21,3.5-3.116,3.669c-0.511,0.051-1.09-0.052-1.754-0.323l-0.784,1.257
				l0.784,1.24c0.664-0.271,1.243-0.374,1.754-0.323c1.906,0.17,3.1,1.766,3.134,3.686c0,2.413-1.481,4.044-3.679,4.044
				c-1.261,0-3.117-0.493-3.117-2.073c0-0.662,0.493-1.274,1.158-1.274c0.631,0,1.175,0.391,1.175,1.07
				c0,0.373-0.17,0.629-0.357,0.816c-0.17,0.17-0.356,0.306-0.356,0.458c0,0.408,0.714,0.51,1.004,0.51
				c1.822,0,1.959-1.953,1.925-3.33c-0.018-1.172,0.067-3.397-1.653-3.243c-1.141,0.102-1.686,1.392-1.805,2.412h-0.033
				c-0.222-1.07-0.783-3.024-2.111-3.857v8.512H132.164z"/>
		</g>
		<g>
			<rect x="129.167" y="130.537" fill="#A8BBE0" width="1.993" height="17.294"/>
			<path fill="#A8BBE0" d="M132.164,147.831v-17.294h0.632v8.494c1.31-0.781,1.89-2.819,2.111-3.838h0.033
				c0.119,1.001,0.664,2.293,1.805,2.395c1.755,0.152,1.636-2.158,1.653-3.33c0.034-1.546-0.103-3.058-1.925-3.211
				c-0.308-0.033-1.004,0.051-1.004,0.493c0,0.136,0.187,0.272,0.356,0.442c0.188,0.187,0.357,0.424,0.357,0.814
				c0,0.679-0.544,1.054-1.175,1.054c-0.665,0-1.158-0.595-1.158-1.257c0-1.598,1.873-2.057,3.117-2.057
				c2.197,0,3.679,1.614,3.661,4.044c-0.017,1.92-1.21,3.499-3.116,3.669c-0.511,0.052-1.09-0.051-1.754-0.323l-0.784,1.258
				l0.784,1.24c0.664-0.272,1.243-0.374,1.754-0.322c1.906,0.169,3.1,1.766,3.134,3.686c0,2.412-1.481,4.043-3.679,4.043
				c-1.261,0-3.117-0.493-3.117-2.072c0-0.663,0.493-1.273,1.158-1.273c0.631,0,1.175,0.391,1.175,1.07
				c0,0.373-0.17,0.628-0.357,0.814c-0.17,0.171-0.356,0.306-0.356,0.459c0,0.407,0.714,0.509,1.004,0.509
				c1.822,0,1.959-1.953,1.925-3.328c-0.018-1.173,0.067-3.398-1.653-3.245c-1.141,0.102-1.686,1.393-1.805,2.412h-0.033
				c-0.222-1.07-0.783-3.024-2.111-3.856v8.511H132.164z"/>
		</g>
		<g>
			<rect x="129.167" y="147.831" fill="#A8BBE0" width="1.993" height="17.294"/>
			<path fill="#A8BBE0" d="M132.164,165.125v-17.294h0.632v8.495c1.31-0.781,1.89-2.82,2.111-3.84h0.033
				c0.119,1.003,0.664,2.294,1.805,2.395c1.755,0.153,1.636-2.156,1.653-3.328c0.034-1.546-0.103-3.06-1.925-3.212
				c-0.308-0.034-1.004,0.051-1.004,0.493c0,0.136,0.187,0.271,0.356,0.441c0.188,0.187,0.357,0.425,0.357,0.815
				c0,0.679-0.544,1.054-1.175,1.054c-0.665,0-1.158-0.595-1.158-1.258c0-1.596,1.873-2.056,3.117-2.056
				c2.197,0,3.679,1.615,3.661,4.044c-0.017,1.92-1.21,3.498-3.116,3.67c-0.511,0.05-1.09-0.053-1.754-0.324l-0.784,1.258
				l0.784,1.24c0.664-0.272,1.243-0.374,1.754-0.322c1.906,0.169,3.1,1.766,3.134,3.686c0,2.413-1.481,4.043-3.679,4.043
				c-1.261,0-3.117-0.492-3.117-2.072c0-0.663,0.493-1.274,1.158-1.274c0.631,0,1.175,0.391,1.175,1.07
				c0,0.373-0.17,0.629-0.357,0.816c-0.17,0.169-0.356,0.306-0.356,0.458c0,0.408,0.714,0.51,1.004,0.51
				c1.822,0,1.959-1.954,1.925-3.33c-0.018-1.172,0.067-3.397-1.653-3.244c-1.141,0.102-1.686,1.393-1.805,2.412h-0.033
				c-0.222-1.07-0.783-3.024-2.111-3.856v8.511H132.164z"/>
		</g>
		<g>
			<rect x="129.167" y="165.125" fill="#A8BBE0" width="1.993" height="17.294"/>
			<path fill="#A8BBE0" d="M132.164,182.419v-17.294h0.632v8.494c1.31-0.781,1.89-2.82,2.111-3.839h0.033
				c0.119,1.002,0.664,2.293,1.805,2.396c1.755,0.152,1.636-2.158,1.653-3.33c0.034-1.546-0.103-3.058-1.925-3.211
				c-0.308-0.033-1.004,0.051-1.004,0.493c0,0.136,0.187,0.271,0.356,0.441c0.188,0.187,0.357,0.425,0.357,0.815
				c0,0.679-0.544,1.054-1.175,1.054c-0.665,0-1.158-0.595-1.158-1.258c0-1.597,1.873-2.056,3.117-2.056
				c2.197,0,3.679,1.614,3.661,4.043c-0.017,1.92-1.21,3.5-3.116,3.67c-0.511,0.051-1.09-0.051-1.754-0.322l-0.784,1.257l0.784,1.24
				c0.664-0.271,1.243-0.374,1.754-0.323c1.906,0.169,3.1,1.767,3.134,3.687c0,2.412-1.481,4.043-3.679,4.043
				c-1.261,0-3.117-0.493-3.117-2.072c0-0.662,0.493-1.274,1.158-1.274c0.631,0,1.175,0.391,1.175,1.07
				c0,0.373-0.17,0.628-0.357,0.815c-0.17,0.171-0.356,0.306-0.356,0.459c0,0.407,0.714,0.509,1.004,0.509
				c1.822,0,1.959-1.952,1.925-3.329c-0.018-1.172,0.067-3.397-1.653-3.244c-1.141,0.102-1.686,1.393-1.805,2.412h-0.033
				c-0.222-1.071-0.783-3.023-2.111-3.857v8.512H132.164z"/>
		</g>
		<g>
			<rect x="129.167" y="182.418" fill="#A8BBE0" width="1.993" height="17.295"/>
			<path fill="#A8BBE0" d="M132.164,199.713v-17.295h0.632v8.495c1.31-0.781,1.89-2.819,2.111-3.84h0.033
				c0.119,1.003,0.664,2.295,1.805,2.396c1.755,0.152,1.636-2.158,1.653-3.33c0.034-1.546-0.103-3.058-1.925-3.211
				c-0.308-0.034-1.004,0.051-1.004,0.493c0,0.136,0.187,0.271,0.356,0.441c0.188,0.187,0.357,0.425,0.357,0.815
				c0,0.679-0.544,1.053-1.175,1.053c-0.665,0-1.158-0.595-1.158-1.257c0-1.597,1.873-2.057,3.117-2.057
				c2.197,0,3.679,1.615,3.661,4.045c-0.017,1.92-1.21,3.498-3.116,3.669c-0.511,0.051-1.09-0.052-1.754-0.323l-0.784,1.257
				l0.784,1.24c0.664-0.271,1.243-0.374,1.754-0.322c1.906,0.17,3.1,1.766,3.134,3.687c0,2.412-1.481,4.043-3.679,4.043
				c-1.261,0-3.117-0.493-3.117-2.073c0-0.662,0.493-1.273,1.158-1.273c0.631,0,1.175,0.391,1.175,1.07
				c0,0.374-0.17,0.629-0.357,0.815c-0.17,0.17-0.356,0.306-0.356,0.458c0,0.408,0.714,0.51,1.004,0.51
				c1.822,0,1.959-1.953,1.925-3.329c-0.018-1.173,0.067-3.398-1.653-3.244c-1.141,0.102-1.686,1.392-1.805,2.412h-0.033
				c-0.222-1.07-0.783-3.024-2.111-3.856v8.511H132.164z"/>
		</g>
		<g>
			<rect x="129.167" y="199.713" fill="#A8BBE0" width="1.993" height="17.293"/>
			<path fill="#A8BBE0" d="M132.164,217.006v-17.293h0.632v8.494c1.31-0.781,1.89-2.82,2.111-3.839h0.033
				c0.119,1.002,0.664,2.293,1.805,2.395c1.755,0.153,1.636-2.157,1.653-3.329c0.034-1.547-0.103-3.059-1.925-3.211
				c-0.308-0.034-1.004,0.05-1.004,0.492c0,0.137,0.187,0.272,0.356,0.442c0.188,0.187,0.357,0.425,0.357,0.815
				c0,0.679-0.544,1.054-1.175,1.054c-0.665,0-1.158-0.595-1.158-1.258c0-1.597,1.873-2.056,3.117-2.056
				c2.197,0,3.679,1.614,3.661,4.043c-0.017,1.92-1.21,3.499-3.116,3.67c-0.511,0.051-1.09-0.052-1.754-0.323l-0.784,1.258
				l0.784,1.24c0.664-0.272,1.243-0.374,1.754-0.323c1.906,0.169,3.1,1.767,3.134,3.687c0,2.412-1.481,4.042-3.679,4.042
				c-1.261,0-3.117-0.492-3.117-2.071c0-0.663,0.493-1.274,1.158-1.274c0.631,0,1.175,0.391,1.175,1.07
				c0,0.373-0.17,0.628-0.357,0.814c-0.17,0.171-0.356,0.307-0.356,0.46c0,0.407,0.714,0.509,1.004,0.509
				c1.822,0,1.959-1.953,1.925-3.329c-0.018-1.172,0.067-3.397-1.653-3.245c-1.141,0.102-1.686,1.394-1.805,2.412h-0.033
				c-0.222-1.07-0.783-3.023-2.111-3.856v8.511H132.164z"/>
		</g>
		<g>
			<path fill="#A8BBE0" d="M17.029,219.426l-0.019,0.019l0.093,0.123l0.089,0.132l0.085,0.139l0.079,0.144l0.071,0.148l0.063,0.153
				l0.053,0.156l0.041,0.157l0.029,0.157l0.015,0.158l0.002,0.078l-0.002,0.077l-0.006,0.078l-0.011,0.076l-0.015,0.076l-0.02,0.073
				l-0.024,0.074l-0.03,0.071l-0.035,0.071l-0.04,0.069l-0.045,0.067l-0.051,0.065l-0.083,0.091l-0.084,0.078l-0.085,0.064
				l-0.087,0.054l-0.088,0.042l-0.09,0.031l-0.091,0.02l-0.091,0.011l-0.092,0.001l-0.092-0.007l-0.093-0.016l-0.093-0.023
				l-0.093-0.03l-0.093-0.037l-0.092-0.043l-0.092-0.049l-0.182-0.111l-0.179-0.126l-0.174-0.138l-0.167-0.145
				c-0.107-0.1-0.212-0.197-0.311-0.29c-0.097-0.096-0.189-0.186-0.271-0.266c-0.096-0.096-0.197-0.196-0.3-0.299l-0.15-0.162
				l-0.145-0.169l-0.137-0.175l-0.126-0.182l-0.112-0.186l-0.05-0.095l-0.044-0.096l-0.04-0.096l-0.034-0.097l-0.028-0.098
				l-0.021-0.098l-0.014-0.098l-0.007-0.099l0-0.1l0.009-0.099l0.018-0.098l0.027-0.099l0.036-0.098l0.046-0.099l0.056-0.098
				l0.067-0.096l0.078-0.097l0.089-0.095c0.021-0.02,0.045-0.042,0.072-0.067c0.029-0.023,0.061-0.049,0.094-0.075l0.11-0.075
				l0.059-0.034l0.06-0.03l0.061-0.027l0.062-0.02l0.06-0.014l0.059-0.007h0.029l0.028,0.003l0.027,0.005l0.026,0.008l0.026,0.01
				l0.024,0.015l0.023,0.016l0.022,0.021l0.015,0.017l0.013,0.02l0.01,0.021l0.008,0.022l0.011,0.051l0.005,0.057
				c-0.001,0.08-0.002,0.171-0.003,0.267l0.002,0.079l0.008,0.081l0.015,0.083l0.023,0.083l0.034,0.083l0.045,0.083l0.057,0.081
				l0.071,0.079l0.072,0.065l0.076,0.055l0.078,0.045l0.08,0.035l0.081,0.024l0.082,0.016l0.083,0.007l0.083-0.002l0.083-0.012
				l0.082-0.019L15.876,219l0.079-0.035l0.077-0.042l0.074-0.05l0.071-0.056l0.067-0.063l0.064-0.072l0.054-0.076l0.044-0.082
				l0.034-0.085l0.025-0.088l0.016-0.089l0.007-0.092l-0.001-0.093l-0.011-0.092l-0.019-0.092l-0.027-0.09l-0.036-0.088
				l-0.043-0.085l-0.051-0.08l-0.059-0.078l-0.065-0.071l-0.084-0.078l-0.086-0.068l-0.088-0.06l-0.09-0.05l-0.092-0.043
				l-0.093-0.034l-0.095-0.027l-0.095-0.02l-0.097-0.012l-0.098-0.006l-0.098,0.001l-0.099,0.008l-0.099,0.014l-0.099,0.019
				l-0.099,0.023l-0.099,0.029l-0.195,0.071l-0.191,0.087l-0.186,0.102l-0.18,0.111l-0.171,0.121l-0.162,0.126l-0.151,0.131
				l-0.138,0.132l-0.11,0.115l-0.103,0.119l-0.096,0.121l-0.087,0.124l-0.08,0.126l-0.073,0.128l-0.065,0.131l-0.058,0.132
				l-0.049,0.134l-0.042,0.136l-0.035,0.137l-0.027,0.138l-0.02,0.139l-0.012,0.14l-0.004,0.142l0.003,0.141l0.011,0.141
				l0.018,0.142l0.026,0.142l0.033,0.142l0.041,0.142l0.048,0.14l0.055,0.14l0.063,0.141l0.071,0.138l0.078,0.138l0.085,0.135
				l0.093,0.135l0.1,0.134l0.108,0.131l0.115,0.129l0.122,0.127l0.103,0.096l0.106,0.091l0.108,0.087l0.111,0.081l0.112,0.075
				l0.114,0.071l0.116,0.066l0.118,0.061l0.119,0.055l0.121,0.049l0.122,0.044l0.123,0.039l0.124,0.032l0.124,0.028l0.125,0.021
				l0.125,0.016l0.125,0.01l0.125,0.004l0.125-0.003l0.125-0.008l0.124-0.015l0.124-0.021l0.124-0.027l0.122-0.033l0.122-0.04
				l0.12-0.046l0.119-0.054l0.117-0.06l0.116-0.066l0.114-0.073l0.111-0.08l0.109-0.087l0.115-0.101l0.111-0.114l0.105-0.125
				l0.102-0.137l0.097-0.15l0.092-0.163l0.088-0.176c0.027-0.061,0.055-0.123,0.083-0.188l1.126,0.257l0.264,1.135l-0.188,0.083
				l-0.175,0.089l-0.163,0.093l-0.15,0.097l-0.138,0.102l-0.125,0.106l-0.114,0.109l-0.101,0.115l-0.087,0.109l-0.08,0.111
				l-0.073,0.113l-0.067,0.115l-0.06,0.116l-0.053,0.119l-0.047,0.12l-0.04,0.12l-0.034,0.122l-0.027,0.122l-0.021,0.124
				l-0.015,0.123l-0.009,0.125l-0.002,0.125l0.003,0.124l0.01,0.125l0.016,0.124l0.021,0.125l0.027,0.123l0.033,0.122l0.038,0.122
				l0.044,0.122l0.049,0.119l0.056,0.118l0.06,0.117l0.066,0.115l0.071,0.113l0.077,0.112l0.082,0.109l0.087,0.107l0.092,0.104
				l0.097,0.103l0.127,0.125l0.129,0.116l0.131,0.108l0.132,0.102l0.135,0.093l0.135,0.087l0.137,0.078l0.138,0.071l0.139,0.063
				l0.139,0.057l0.141,0.048l0.141,0.041l0.141,0.033l0.141,0.026l0.141,0.018l0.141,0.011l0.14,0.003l0.14-0.004l0.139-0.012
				l0.139-0.021l0.137-0.027l0.136-0.035l0.136-0.042l0.133-0.049l0.132-0.058l0.13-0.065l0.128-0.073l0.126-0.079l0.124-0.088
				l0.122-0.097l0.119-0.103l0.115-0.11l0.13-0.136l0.13-0.149l0.126-0.16l0.121-0.17l0.113-0.179l0.102-0.185l0.089-0.19
				l0.073-0.194l0.03-0.098l0.025-0.098l0.02-0.099l0.014-0.099l0.008-0.1l0.001-0.098l-0.005-0.098l-0.012-0.096l-0.019-0.097
				l-0.026-0.095l-0.034-0.094l-0.042-0.092l-0.051-0.091l-0.06-0.089l-0.069-0.087l-0.079-0.084l-0.072-0.065l-0.077-0.059
				l-0.081-0.05l-0.084-0.043l-0.087-0.035l-0.089-0.026l-0.09-0.018l-0.091-0.01l-0.091-0.001l-0.09,0.009l-0.089,0.016
				l-0.087,0.026l-0.084,0.035l-0.081,0.045l-0.077,0.054l-0.072,0.064l-0.063,0.067l-0.056,0.07l-0.049,0.074l-0.043,0.076
				l-0.036,0.079l-0.028,0.079l-0.02,0.081l-0.012,0.082l-0.003,0.082l0.005,0.081l0.015,0.082l0.024,0.08l0.034,0.08l0.044,0.076
				l0.055,0.075l0.065,0.072l0.082,0.074l0.083,0.058l0.082,0.045l0.083,0.033l0.082,0.022l0.082,0.015l0.08,0.008l0.079,0.002
				c0.095-0.002,0.187-0.004,0.265-0.005l0.056,0.004l0.049,0.009l0.022,0.007l0.02,0.009l0.018,0.01l0.016,0.014l0.021,0.023
				l0.018,0.024l0.015,0.025l0.012,0.026l0.009,0.027l0.006,0.028l0.004,0.028l0.001,0.029l-0.005,0.058l-0.013,0.061l-0.02,0.061
				l-0.026,0.06l-0.032,0.059l-0.035,0.057l-0.079,0.106c-0.029,0.031-0.056,0.062-0.082,0.09c-0.028,0.025-0.053,0.049-0.076,0.069
				l-0.103,0.081l-0.101,0.073l-0.101,0.063l-0.099,0.054l-0.099,0.046l-0.097,0.036l-0.096,0.028l-0.096,0.021l-0.095,0.013
				l-0.094,0.006l-0.093-0.001l-0.092-0.009l-0.091-0.015l-0.09-0.021l-0.09-0.026l-0.088-0.032l-0.088-0.038l-0.087-0.042
				l-0.172-0.099l-0.17-0.115l-0.167-0.129l-0.165-0.141l-0.163-0.151l-0.319-0.321c-0.081-0.082-0.171-0.175-0.268-0.272
				c-0.095-0.101-0.196-0.206-0.298-0.314l-0.149-0.17l-0.143-0.177l-0.132-0.181l-0.117-0.187l-0.051-0.094l-0.045-0.095
				l-0.04-0.094l-0.033-0.095l-0.025-0.096l-0.018-0.094l-0.009-0.095l0-0.094l0.009-0.094l0.02-0.092l0.03-0.092l0.042-0.091
				l0.053-0.089l0.065-0.088l0.079-0.086l0.092-0.084l0.066-0.051l0.067-0.046l0.069-0.04l0.071-0.035l0.072-0.029l0.074-0.024
				l0.074-0.021l0.076-0.015l0.076-0.011l0.078-0.007l0.078-0.002l0.078,0.001l0.157,0.015l0.158,0.029l0.157,0.041l0.155,0.053
				l0.152,0.062l0.148,0.071l0.143,0.076l0.137,0.085l0.13,0.088l0.121,0.09l0.02-0.018c-0.053-0.086-0.113-0.182-0.177-0.286
				c-0.06-0.106-0.125-0.222-0.194-0.343c-0.062-0.124-0.127-0.255-0.195-0.389l-0.092-0.208l-0.086-0.215l-0.079-0.221
				l-0.069-0.225l-0.057-0.227l-0.042-0.229l-0.026-0.229l-0.007-0.113l-0.001-0.112l0.003-0.112l0.008-0.111l0.014-0.109
				l0.02-0.109l3.411-0.001v-0.629l-2.999-0.001v-2.997h-0.63v3.409l-0.112,0.018l-0.112,0.014l-0.113,0.008l-0.114,0.003
				l-0.228-0.01l-0.229-0.026l-0.228-0.042l-0.226-0.055l-0.223-0.067l-0.219-0.077l-0.212-0.086l-0.206-0.092l-0.198-0.096
				l-0.188-0.098c-0.121-0.07-0.237-0.136-0.345-0.198C17.217,219.545,17.118,219.482,17.029,219.426z"/>
			<rect x="21.91" y="217.006" fill="#A8BBE0" width="1.994" height="1.994"/>
			<path fill="#A8BBE0" d="M12.923,223.235l-0.064,0.068l-0.064,0.074l-0.063,0.078l-0.06,0.084l-0.056,0.089l-0.051,0.092
				l-0.044,0.094l-0.036,0.097l-0.027,0.097l-0.017,0.098l-0.003,0.049l-0.001,0.049l0.002,0.048l0.005,0.048l0.01,0.048
				l0.013,0.046l0.017,0.047l0.021,0.046l0.025,0.045l0.029,0.044l0.034,0.043l0.039,0.042l0.035,0.032l0.038,0.028l0.04,0.025
				l0.042,0.021l0.043,0.016l0.043,0.014l0.045,0.01l0.045,0.005h0.045l0.045-0.004l0.043-0.009l0.043-0.013l0.042-0.018l0.04-0.021
				l0.038-0.027l0.036-0.032l0.031-0.033l0.027-0.034l0.024-0.037l0.021-0.037l0.018-0.039l0.014-0.04l0.01-0.04l0.006-0.04
				l0.001-0.04l-0.003-0.041l-0.007-0.041l-0.012-0.039l-0.017-0.039l-0.022-0.039l-0.027-0.037l-0.032-0.036l-0.041-0.035
				l-0.041-0.029l-0.042-0.022l-0.041-0.016l-0.041-0.012l-0.041-0.007l-0.079-0.005c-0.046,0.001-0.091,0.002-0.13,0.003
				l-0.028-0.002l-0.025-0.005l-0.021-0.007l-0.008-0.006l-0.008-0.006l-0.02-0.024l-0.013-0.026l-0.007-0.026l-0.002-0.028
				l0.002-0.029l0.006-0.03l0.01-0.029l0.013-0.029l0.033-0.058l0.039-0.052l0.041-0.045l0.038-0.035l0.05-0.04l0.05-0.035
				l0.049-0.031l0.05-0.027l0.048-0.022l0.048-0.019l0.048-0.014l0.047-0.01l0.047-0.007l0.046-0.003l0.046,0.001l0.045,0.003
				l0.045,0.008l0.045,0.011l0.088,0.028l0.087,0.039l0.085,0.05l0.084,0.057l0.083,0.064l0.162,0.145l0.158,0.159
				c0.08,0.082,0.178,0.184,0.281,0.291l0.144,0.171l0.065,0.09l0.058,0.092l0.047,0.093l0.02,0.047l0.016,0.047l0.013,0.047
				l0.008,0.047l0.004,0.048l0,0.045l-0.005,0.047l-0.009,0.046l-0.015,0.045l-0.021,0.045l-0.026,0.045l-0.033,0.043l-0.039,0.043
				l-0.045,0.041l-0.033,0.025l-0.033,0.022l-0.069,0.037l-0.072,0.026l-0.075,0.018l-0.076,0.008l-0.077,0.001l-0.078-0.007
				l-0.078-0.015l-0.077-0.021l-0.077-0.025l-0.076-0.031l-0.073-0.034l-0.071-0.039l-0.068-0.041l-0.124-0.089l-0.009,0.01
				c0.024,0.04,0.052,0.084,0.082,0.131c0.028,0.05,0.058,0.102,0.089,0.158c0.029,0.057,0.06,0.116,0.091,0.177l0.085,0.192
				l0.073,0.204l0.03,0.105l0.025,0.104l0.018,0.106l0.011,0.105l0.003,0.104l-0.005,0.104l-0.049-0.021l-0.051-0.017l-0.054-0.01
				l-0.056-0.004l-0.045,0.003l-0.044,0.006l-0.043,0.012l-0.041,0.014l-0.039,0.02l-0.037,0.022l-0.034,0.025l-0.032,0.029
				l-0.029,0.031l-0.025,0.034l-0.022,0.037l-0.019,0.039l-0.015,0.04l-0.011,0.043l-0.007,0.044l-0.002,0.046l0.002,0.046
				l0.007,0.045l0.011,0.042l0.015,0.041l0.019,0.039l0.022,0.037l0.025,0.034l0.029,0.031l0.032,0.029l0.034,0.025l0.037,0.022
				l0.039,0.02l0.041,0.015l0.043,0.011l0.044,0.006l0.045,0.003l0.045-0.003l0.044-0.006l0.042-0.011l0.041-0.015l0.039-0.02
				l0.037-0.022l0.034-0.025l0.032-0.029l0.029-0.031l0.026-0.034l0.022-0.037l0.019-0.039l0.015-0.041l0.011-0.042l0.007-0.045
				l0.002-0.046l-0.003-0.05l-0.009-0.048l-0.014-0.047l-0.018-0.045l0.105-0.005l0.106,0.002l0.106,0.011l0.107,0.017l0.106,0.024
				l0.104,0.029l0.204,0.072l0.193,0.085c0.061,0.031,0.121,0.062,0.178,0.092c0.055,0.031,0.109,0.062,0.159,0.091
				c0.048,0.031,0.094,0.06,0.136,0.086l0.009-0.01l-0.09-0.125l-0.042-0.069l-0.039-0.071l-0.035-0.073l-0.031-0.075l-0.026-0.077
				l-0.021-0.078l-0.014-0.078l-0.007-0.078v-0.076l0.008-0.077l0.018-0.074l0.027-0.071l0.037-0.069l0.022-0.034l0.025-0.032
				l0.042-0.045l0.042-0.038l0.042-0.033l0.043-0.025l0.044-0.021l0.044-0.016l0.045-0.011l0.045-0.004l0.046-0.001l0.046,0.003
				l0.046,0.008l0.046,0.012l0.046,0.015l0.046,0.019l0.092,0.046l0.09,0.055l0.088,0.063l0.169,0.14
				c0.104,0.1,0.206,0.196,0.288,0.275c0.047,0.047,0.097,0.097,0.148,0.147l0.146,0.163l0.068,0.087l0.062,0.09l0.055,0.093
				l0.047,0.094l0.036,0.096l0.014,0.048l0.01,0.049l0.007,0.049l0.003,0.048l0,0.049l-0.004,0.049l-0.009,0.049l-0.013,0.049
				l-0.018,0.048l-0.023,0.049l-0.027,0.049l-0.033,0.047l-0.039,0.048l-0.044,0.048c-0.01,0.009-0.022,0.021-0.036,0.032
				l-0.046,0.038l-0.054,0.037l-0.059,0.032l-0.03,0.013l-0.03,0.011l-0.03,0.007l-0.029,0.003l-0.028-0.001l-0.027-0.007
				l-0.024-0.012L17,228.136l-0.007-0.008l-0.006-0.009l-0.009-0.022l-0.005-0.025l-0.002-0.028c0-0.039,0.001-0.084,0.002-0.132
				l-0.001-0.038l-0.004-0.041l-0.008-0.041l-0.012-0.041l-0.017-0.041l-0.022-0.041l-0.028-0.04l-0.035-0.039l-0.036-0.032
				l-0.037-0.028l-0.038-0.021l-0.04-0.017l-0.04-0.013l-0.041-0.008l-0.041-0.003l-0.041,0.001l-0.041,0.005l-0.041,0.01
				l-0.04,0.014l-0.039,0.018l-0.038,0.021l-0.037,0.023l-0.035,0.028l-0.033,0.031l-0.032,0.035l-0.026,0.038l-0.022,0.04
				l-0.017,0.043l-0.013,0.043l-0.008,0.044l-0.003,0.045l0.001,0.046l0.005,0.046l0.009,0.045l0.013,0.045l0.018,0.044l0.021,0.041
				l0.026,0.04l0.029,0.038l0.032,0.036l0.041,0.038l0.042,0.034l0.044,0.029l0.044,0.025l0.045,0.021l0.046,0.017l0.046,0.014
				l0.048,0.009l0.048,0.007l0.048,0.002l0.049-0.001l0.049-0.003l0.098-0.016l0.098-0.025l0.096-0.036l0.095-0.043l0.092-0.05
				l0.089-0.057l0.085-0.06l0.08-0.062l0.075-0.065l0.069-0.064l0.105-0.116l0.09-0.122l0.04-0.062l0.036-0.064l0.032-0.064
				l0.028-0.065l0.024-0.065l0.021-0.067l0.017-0.067l0.013-0.068l0.01-0.069l0.006-0.069l0.002-0.069l-0.002-0.069l-0.005-0.069
				l-0.009-0.071l-0.029-0.14l-0.044-0.139l-0.059-0.139l-0.073-0.136l-0.088-0.135l-0.102-0.13l-0.118-0.127l-0.104-0.093
				l-0.108-0.083l-0.112-0.072l-0.116-0.063l-0.119-0.052l-0.121-0.04l-0.123-0.03l-0.124-0.019l-0.124-0.007l-0.124,0.006
				l-0.123,0.018l-0.121,0.03l-0.119,0.042l-0.117,0.056l-0.114,0.069l-0.109,0.082l-0.057,0.051l-0.054,0.056l-0.053,0.063
				l-0.05,0.068l-0.048,0.074l-0.046,0.079l-0.043,0.087l-0.042,0.094l-0.557-0.127l-0.132-0.561l0.093-0.042l0.087-0.044
				l0.081-0.045l0.074-0.049l0.068-0.051l0.062-0.052l0.056-0.055l0.05-0.057l0.083-0.109l0.069-0.113l0.056-0.116l0.043-0.119
				l0.031-0.12l0.018-0.123l0.005-0.123l-0.006-0.124l-0.018-0.122l-0.03-0.122l-0.041-0.12l-0.052-0.118l-0.063-0.115l-0.073-0.111
				l-0.083-0.107l-0.094-0.103l-0.126-0.119l-0.131-0.104l-0.133-0.089l-0.136-0.074l-0.138-0.059l-0.139-0.045l-0.07-0.017
				l-0.07-0.013l-0.069-0.01l-0.07-0.004l-0.069-0.002l-0.069,0.002l-0.069,0.006l-0.068,0.01l-0.068,0.014l-0.068,0.018
				l-0.066,0.021l-0.066,0.024l-0.065,0.028l-0.064,0.032L13.223,223l-0.062,0.04l-0.121,0.091L12.923,223.235z"/>
		</g>
		<g>
			<path fill="#A8BBE0" d="M21.483,19.9l-0.019-0.019l-0.123,0.093l-0.131,0.089l-0.139,0.085l-0.144,0.079l-0.149,0.071
				l-0.153,0.063l-0.155,0.053l-0.158,0.041l-0.158,0.029L19.997,20.5l-0.078,0.002L19.841,20.5l-0.077-0.006l-0.077-0.01
				l-0.076-0.015l-0.074-0.021l-0.073-0.024l-0.072-0.03l-0.07-0.035l-0.07-0.041l-0.067-0.045l-0.066-0.051l-0.091-0.083
				l-0.078-0.084l-0.065-0.085l-0.053-0.087l-0.042-0.089l-0.031-0.09l-0.021-0.09l-0.01-0.091l-0.001-0.092l0.007-0.092
				l0.016-0.093l0.023-0.093l0.031-0.093l0.037-0.093l0.043-0.092l0.048-0.092l0.111-0.182l0.127-0.178l0.137-0.174l0.145-0.167
				c0.1-0.106,0.198-0.212,0.291-0.311c0.095-0.097,0.185-0.189,0.266-0.271c0.095-0.096,0.195-0.197,0.298-0.3l0.162-0.15
				l0.169-0.146l0.175-0.137l0.181-0.126l0.186-0.112l0.094-0.049l0.096-0.045l0.096-0.04l0.097-0.034l0.097-0.027l0.098-0.021
				l0.098-0.014l0.098-0.007l0.099,0l0.098,0.009l0.099,0.018l0.099,0.027l0.098,0.036l0.098,0.046l0.097,0.056l0.097,0.067
				l0.096,0.078l0.095,0.089c0.02,0.021,0.042,0.046,0.067,0.073c0.023,0.029,0.049,0.061,0.076,0.094l0.074,0.11l0.035,0.059
				l0.031,0.06l0.026,0.061l0.021,0.061l0.014,0.06l0.006,0.059v0.029l-0.003,0.028l-0.005,0.027l-0.008,0.026l-0.01,0.025
				l-0.014,0.024l-0.016,0.023l-0.02,0.022l-0.017,0.015l-0.02,0.012l-0.021,0.01L23.124,17.6l-0.051,0.011l-0.057,0.005
				c-0.079-0.001-0.171-0.002-0.266-0.003l-0.079,0.002l-0.082,0.008l-0.083,0.015l-0.083,0.024l-0.083,0.033l-0.083,0.045
				l-0.081,0.057l-0.08,0.071l-0.065,0.072l-0.055,0.076l-0.045,0.078l-0.035,0.08l-0.025,0.081l-0.016,0.083l-0.006,0.083
				l0.002,0.083l0.011,0.082l0.019,0.082l0.027,0.081l0.035,0.079l0.042,0.077l0.049,0.074l0.056,0.071l0.063,0.068l0.072,0.064
				l0.077,0.054l0.082,0.044l0.085,0.035l0.088,0.025l0.089,0.016l0.092,0.007l0.092-0.002l0.092-0.01l0.092-0.019l0.09-0.027
				l0.088-0.035l0.084-0.043l0.082-0.051l0.077-0.059l0.072-0.065l0.078-0.083l0.068-0.086l0.06-0.087l0.051-0.09l0.042-0.092
				l0.034-0.093l0.027-0.095l0.019-0.096l0.012-0.097l0.006-0.097l-0.001-0.098l-0.007-0.099l-0.013-0.099l-0.019-0.099
				l-0.024-0.099L23.81,17.54l-0.071-0.195l-0.087-0.192l-0.101-0.186l-0.112-0.18l-0.121-0.171l-0.127-0.162l-0.13-0.151
				l-0.131-0.138l-0.116-0.11l-0.119-0.103l-0.121-0.096l-0.124-0.087l-0.126-0.08l-0.128-0.073l-0.13-0.065l-0.132-0.057
				l-0.134-0.049l-0.136-0.042l-0.136-0.035l-0.138-0.027l-0.139-0.02l-0.14-0.012l-0.141-0.004l-0.141,0.003l-0.141,0.01
				l-0.142,0.019l-0.141,0.025l-0.142,0.033l-0.141,0.041l-0.141,0.048l-0.14,0.056l-0.139,0.063l-0.139,0.07l-0.137,0.078
				l-0.136,0.085l-0.135,0.093l-0.132,0.1l-0.131,0.107l-0.129,0.115l-0.127,0.122l-0.095,0.104l-0.092,0.105l-0.086,0.108
				l-0.081,0.111l-0.076,0.112l-0.071,0.115l-0.065,0.116l-0.061,0.118l-0.055,0.12l-0.05,0.121l-0.044,0.122l-0.039,0.123
				L17.79,17.87l-0.027,0.125l-0.021,0.125l-0.016,0.125l-0.009,0.125l-0.004,0.125l0.002,0.125l0.008,0.125l0.015,0.125
				l0.021,0.124l0.027,0.124l0.034,0.122l0.04,0.121l0.047,0.12l0.053,0.119l0.06,0.117l0.067,0.116l0.073,0.113l0.08,0.111
				l0.087,0.109l0.102,0.115l0.113,0.11l0.125,0.106l0.138,0.102l0.15,0.097l0.163,0.092l0.175,0.088
				c0.062,0.027,0.125,0.055,0.189,0.083l-0.256,1.126l-1.135,0.264l-0.083-0.188l-0.088-0.175l-0.093-0.163l-0.097-0.149
				l-0.102-0.138l-0.105-0.125l-0.11-0.113l-0.115-0.101l-0.109-0.087l-0.111-0.08l-0.114-0.073l-0.115-0.067l-0.117-0.06
				l-0.118-0.053l-0.12-0.047l-0.121-0.041l-0.122-0.034l-0.123-0.027l-0.124-0.021l-0.124-0.015l-0.125-0.009l-0.124-0.003
				l-0.125,0.003l-0.125,0.009l-0.125,0.016l-0.124,0.021l-0.124,0.027l-0.123,0.033l-0.123,0.039l-0.121,0.044l-0.12,0.049
				l-0.119,0.055l-0.117,0.061l-0.115,0.066l-0.114,0.071l-0.111,0.076l-0.11,0.082l-0.107,0.087l-0.105,0.091l-0.103,0.097
				l-0.124,0.127l-0.117,0.129l-0.108,0.131l-0.101,0.133l-0.094,0.134l-0.086,0.136l-0.079,0.137l-0.071,0.138l-0.063,0.139
				l-0.056,0.14l-0.049,0.14l-0.041,0.141l-0.033,0.142l-0.026,0.141l-0.018,0.141l-0.011,0.141l-0.002,0.141l0.004,0.14l0.012,0.14
				l0.02,0.139l0.027,0.137l0.035,0.136l0.042,0.135l0.05,0.133l0.057,0.132l0.065,0.13l0.072,0.128l0.081,0.126l0.088,0.124
				l0.095,0.122l0.104,0.119l0.11,0.116l0.136,0.13l0.149,0.129l0.16,0.126l0.17,0.122l0.178,0.113l0.185,0.103l0.19,0.089
				l0.194,0.073l0.098,0.03l0.099,0.025l0.098,0.02l0.099,0.014l0.099,0.008l0.098,0.002l0.098-0.005l0.097-0.012l0.096-0.019
				l0.095-0.026l0.094-0.035l0.092-0.042l0.091-0.051l0.088-0.06l0.086-0.069l0.085-0.078l0.065-0.072l0.058-0.077l0.05-0.081
				l0.043-0.084l0.034-0.087l0.026-0.089l0.019-0.091l0.009-0.091l0.001-0.091l-0.008-0.09l-0.017-0.089l-0.026-0.087l-0.035-0.084
				l-0.045-0.081l-0.054-0.076l-0.064-0.072l-0.067-0.063l-0.071-0.056l-0.074-0.049l-0.076-0.042l-0.079-0.036l-0.08-0.028
				l-0.081-0.021l-0.082-0.012l-0.082-0.003l-0.082,0.005l-0.082,0.015l-0.08,0.024l-0.079,0.034l-0.077,0.044l-0.075,0.055
				l-0.072,0.065l-0.074,0.082l-0.059,0.083l-0.044,0.083l-0.033,0.083l-0.022,0.083l-0.014,0.082l-0.007,0.08l-0.002,0.079
				c0.002,0.094,0.004,0.187,0.005,0.265l-0.004,0.055l-0.008,0.049l-0.007,0.022l-0.008,0.02l-0.011,0.018l-0.013,0.016
				l-0.024,0.021l-0.024,0.019l-0.025,0.015l-0.026,0.012l-0.027,0.009l-0.028,0.006l-0.028,0.003l-0.029,0.001l-0.059-0.004
				l-0.06-0.013l-0.061-0.021l-0.06-0.026l-0.058-0.032l-0.058-0.036l-0.105-0.079c-0.032-0.029-0.062-0.056-0.09-0.082
				c-0.025-0.028-0.049-0.054-0.069-0.076l-0.082-0.103l-0.072-0.101l-0.063-0.101L13.59,25.38l-0.045-0.098l-0.037-0.098
				l-0.028-0.096l-0.021-0.095l-0.013-0.095l-0.006-0.094l0.001-0.093l0.008-0.092l0.015-0.091l0.021-0.091l0.027-0.089l0.032-0.089
				l0.038-0.088l0.042-0.087l0.098-0.172l0.115-0.17l0.13-0.167l0.141-0.165l0.15-0.164l0.321-0.319
				c0.082-0.081,0.175-0.171,0.273-0.268c0.1-0.095,0.206-0.196,0.314-0.298l0.17-0.149l0.176-0.143l0.181-0.132l0.186-0.116
				l0.094-0.051l0.094-0.046l0.095-0.04l0.095-0.032l0.095-0.026l0.095-0.017l0.095-0.009l0.094,0l0.093,0.01l0.092,0.019
				l0.092,0.03l0.09,0.042l0.089,0.054l0.087,0.065l0.086,0.079l0.084,0.092l0.051,0.066l0.045,0.068l0.04,0.069l0.035,0.071
				l0.029,0.072l0.025,0.074l0.02,0.075l0.015,0.075l0.011,0.077l0.006,0.077l0.002,0.078l-0.002,0.079l-0.015,0.157l-0.028,0.157
				l-0.042,0.157l-0.052,0.155l-0.063,0.152l-0.07,0.148l-0.078,0.144l-0.083,0.137l-0.088,0.13l-0.091,0.121l0.019,0.019
				c0.086-0.053,0.182-0.112,0.286-0.177c0.106-0.061,0.222-0.126,0.343-0.194c0.125-0.063,0.255-0.128,0.389-0.195l0.208-0.092
				l0.215-0.086l0.22-0.079l0.225-0.068l0.227-0.057l0.229-0.042l0.228-0.026l0.113-0.007l0.113-0.002l0.112,0.003l0.111,0.008
				l0.11,0.014l0.108,0.02l0.001,3.411h0.63v-2.999h2.997v-0.631h-3.409l-0.018-0.111l-0.013-0.112l-0.008-0.113l-0.003-0.114
				l0.009-0.229l0.026-0.229l0.042-0.228l0.056-0.226l0.067-0.223l0.078-0.218l0.085-0.213l0.091-0.206l0.096-0.198l0.099-0.188
				c0.069-0.121,0.135-0.236,0.197-0.345C21.365,20.088,21.427,19.989,21.483,19.9z"/>
			<rect x="21.909" y="24.781" fill="#A8BBE0" width="1.993" height="1.993"/>
			<path fill="#A8BBE0" d="M17.673,15.794l-0.067-0.064l-0.074-0.064l-0.08-0.063l-0.084-0.06l-0.088-0.056l-0.092-0.051
				l-0.094-0.044l-0.096-0.036l-0.098-0.027l-0.097-0.017l-0.049-0.004l-0.049,0l-0.048,0.002l-0.047,0.005l-0.048,0.01
				l-0.047,0.013l-0.046,0.017l-0.045,0.021l-0.045,0.026l-0.044,0.029l-0.043,0.034l-0.042,0.039l-0.033,0.036l-0.029,0.038
				l-0.025,0.041l-0.021,0.042l-0.017,0.043l-0.013,0.044l-0.009,0.045l-0.005,0.045l0,0.045l0.004,0.045l0.008,0.044l0.013,0.043
				l0.018,0.042l0.022,0.04l0.027,0.038l0.031,0.036l0.034,0.031l0.035,0.027l0.036,0.025l0.038,0.021l0.038,0.018l0.04,0.014
				l0.04,0.009l0.041,0.006l0.041,0.001l0.041-0.002l0.041-0.007l0.04-0.012l0.039-0.017l0.039-0.022l0.037-0.027l0.036-0.032
				l0.036-0.04l0.029-0.041l0.022-0.041l0.016-0.041l0.012-0.041l0.007-0.04l0.004-0.079c-0.001-0.046-0.002-0.092-0.002-0.13
				l0.001-0.028l0.005-0.025l0.008-0.021l0.005-0.009l0.006-0.008l0.024-0.02l0.025-0.013l0.027-0.007l0.028-0.002l0.029,0.002
				l0.03,0.006l0.03,0.01l0.03,0.014l0.057,0.033l0.052,0.039l0.045,0.041l0.034,0.038l0.041,0.05l0.036,0.05l0.032,0.049L17.531,16
				l0.022,0.048l0.019,0.048l0.014,0.048l0.01,0.047l0.006,0.047l0.003,0.047l0,0.045l-0.004,0.046l-0.007,0.045l-0.01,0.044
				l-0.029,0.088l-0.04,0.087l-0.049,0.085l-0.057,0.084l-0.064,0.083L17.2,17.055l-0.159,0.158
				c-0.082,0.08-0.184,0.178-0.291,0.281l-0.171,0.144l-0.09,0.065l-0.092,0.058l-0.093,0.048l-0.046,0.02l-0.047,0.016
				l-0.046,0.013l-0.047,0.009L16.07,17.87l-0.046,0l-0.046-0.005l-0.045-0.01l-0.045-0.015l-0.045-0.021l-0.044-0.026l-0.043-0.033
				l-0.042-0.039l-0.042-0.046l-0.026-0.033l-0.022-0.033l-0.037-0.069l-0.027-0.072l-0.017-0.075l-0.008-0.076l0-0.077l0.007-0.078
				l0.014-0.078l0.02-0.078l0.026-0.077l0.031-0.076l0.035-0.073l0.039-0.071l0.041-0.067l0.089-0.125l-0.009-0.009
				c-0.04,0.025-0.084,0.052-0.131,0.082c-0.049,0.028-0.102,0.058-0.157,0.089c-0.057,0.029-0.116,0.06-0.177,0.091l-0.193,0.085
				l-0.204,0.073l-0.104,0.03l-0.105,0.024l-0.105,0.019l-0.106,0.011l-0.104,0.003l-0.103-0.005l0.022-0.049l0.016-0.051
				l0.01-0.055l0.004-0.056l-0.002-0.046l-0.007-0.044l-0.011-0.043l-0.015-0.041l-0.019-0.039l-0.022-0.037l-0.025-0.034
				l-0.028-0.032l-0.032-0.029l-0.034-0.025l-0.037-0.022l-0.039-0.019l-0.041-0.015l-0.042-0.011l-0.044-0.007l-0.046-0.002
				l-0.045,0.002l-0.044,0.007l-0.043,0.011l-0.041,0.015l-0.039,0.019l-0.037,0.022l-0.034,0.025l-0.032,0.029l-0.029,0.032
				l-0.025,0.034l-0.022,0.037l-0.019,0.039l-0.015,0.041l-0.011,0.043l-0.007,0.044l-0.002,0.046l0.002,0.045l0.007,0.044
				l0.011,0.042l0.015,0.042l0.019,0.039l0.022,0.037l0.025,0.035l0.029,0.031l0.032,0.029l0.034,0.026l0.037,0.022l0.039,0.019
				l0.041,0.015l0.043,0.011l0.044,0.007l0.045,0.002l0.05-0.003l0.049-0.008l0.046-0.014l0.044-0.018l0.006,0.105l-0.002,0.107
				l-0.011,0.106l-0.017,0.106l-0.024,0.106l-0.029,0.104l-0.072,0.204l-0.084,0.192c-0.032,0.062-0.063,0.121-0.092,0.178
				c-0.032,0.055-0.063,0.109-0.092,0.159c-0.031,0.048-0.06,0.094-0.086,0.136l0.01,0.009l0.125-0.09l0.068-0.042l0.071-0.039
				l0.074-0.035l0.076-0.031l0.077-0.026l0.078-0.021l0.078-0.014l0.078-0.007h0.077l0.076,0.008l0.075,0.017l0.072,0.027
				l0.069,0.037l0.033,0.022l0.033,0.025l0.045,0.041l0.038,0.042l0.032,0.043l0.026,0.043l0.021,0.044l0.015,0.044l0.01,0.045
				l0.005,0.045l0,0.046l-0.003,0.045l-0.008,0.046l-0.012,0.046l-0.015,0.045l-0.018,0.046l-0.045,0.091l-0.055,0.09l-0.063,0.088
				l-0.139,0.169c-0.1,0.105-0.197,0.206-0.276,0.288c-0.047,0.048-0.097,0.098-0.148,0.149l-0.164,0.146l-0.087,0.068l-0.09,0.062
				l-0.092,0.056l-0.094,0.046l-0.096,0.036l-0.048,0.014l-0.048,0.011l-0.049,0.007l-0.049,0.003h-0.049l-0.048-0.005l-0.049-0.009
				l-0.048-0.013l-0.049-0.018l-0.048-0.023l-0.048-0.027l-0.048-0.033l-0.048-0.039l-0.047-0.043
				c-0.01-0.011-0.021-0.022-0.033-0.036l-0.037-0.047l-0.037-0.054l-0.033-0.059l-0.013-0.03l-0.01-0.03l-0.007-0.03l-0.003-0.029
				l0.001-0.028l0.006-0.026l0.012-0.025l0.019-0.022l0.008-0.007l0.009-0.006l0.022-0.009l0.025-0.005l0.028-0.002
				c0.039,0,0.085,0.001,0.132,0.002l0.039-0.001l0.041-0.004l0.041-0.008l0.041-0.012l0.042-0.017l0.041-0.022l0.04-0.028
				l0.04-0.035l0.032-0.036l0.027-0.037l0.022-0.039l0.017-0.039l0.013-0.041l0.008-0.041l0.003-0.041l-0.001-0.041l-0.005-0.041
				l-0.01-0.041l-0.013-0.04l-0.017-0.04l-0.021-0.038l-0.024-0.037l-0.027-0.036l-0.031-0.033l-0.036-0.032l-0.038-0.027
				l-0.04-0.022l-0.042-0.017l-0.043-0.013l-0.044-0.008l-0.045-0.003l-0.045,0.001l-0.046,0.005l-0.045,0.01l-0.044,0.013
				l-0.043,0.018l-0.042,0.021l-0.041,0.026L12.659,19.1l-0.036,0.032l-0.038,0.042l-0.034,0.042l-0.029,0.044l-0.025,0.044
				l-0.021,0.045l-0.017,0.046l-0.013,0.047l-0.01,0.047l-0.006,0.048l-0.002,0.048l0,0.048l0.003,0.049l0.016,0.098l0.026,0.097
				l0.035,0.097l0.043,0.095l0.05,0.092l0.055,0.089l0.06,0.085l0.063,0.08l0.064,0.074l0.065,0.069l0.116,0.105l0.122,0.091
				l0.062,0.04l0.064,0.036l0.064,0.032l0.065,0.028l0.066,0.025l0.066,0.021l0.068,0.017l0.068,0.014l0.069,0.009l0.069,0.006
				l0.07,0.002l0.07-0.002l0.07-0.005l0.07-0.009l0.14-0.029l0.14-0.044l0.138-0.058l0.136-0.073l0.134-0.088l0.13-0.103
				l0.127-0.118l0.092-0.103l0.083-0.108l0.073-0.113l0.062-0.116l0.052-0.119l0.041-0.121l0.03-0.123l0.019-0.124l0.006-0.124
				l-0.005-0.124l-0.018-0.123l-0.03-0.122l-0.043-0.119l-0.056-0.117l-0.069-0.113l-0.082-0.109l-0.05-0.057l-0.057-0.055
				l-0.062-0.052l-0.068-0.05l-0.074-0.048l-0.081-0.045l-0.087-0.043l-0.093-0.042l0.126-0.557l0.561-0.131l0.042,0.093
				l0.043,0.087l0.045,0.081l0.048,0.074l0.05,0.068l0.052,0.062l0.055,0.056l0.057,0.05l0.109,0.083l0.113,0.07l0.116,0.056
				l0.12,0.043l0.121,0.031l0.123,0.018l0.123,0.005l0.124-0.006l0.123-0.018l0.122-0.03l0.12-0.041l0.118-0.051l0.115-0.063
				l0.112-0.073l0.107-0.083l0.103-0.094l0.119-0.126l0.104-0.131l0.088-0.133l0.074-0.136l0.06-0.138l0.044-0.139l0.017-0.07
				l0.013-0.07l0.009-0.069l0.005-0.07l0.001-0.07l-0.002-0.069l-0.006-0.069l-0.01-0.068l-0.013-0.068l-0.018-0.067l-0.021-0.067
				l-0.024-0.066l-0.028-0.065l-0.032-0.064l-0.036-0.063l-0.04-0.063l-0.091-0.121L17.673,15.794z"/>
		</g>
		<g>
			<path fill="#A8BBE0" d="M136.041,24.354l0.02-0.019l-0.094-0.123l-0.09-0.131l-0.084-0.139l-0.079-0.144l-0.071-0.149
				l-0.063-0.152l-0.053-0.156l-0.042-0.157l-0.028-0.158l-0.016-0.157l-0.002-0.079l0.003-0.078l0.006-0.077l0.01-0.077
				l0.016-0.075l0.02-0.075l0.024-0.073l0.03-0.072l0.035-0.07l0.039-0.069l0.046-0.067l0.051-0.066l0.083-0.09l0.084-0.078
				l0.086-0.065l0.088-0.053l0.088-0.042l0.09-0.031l0.09-0.021l0.092-0.011l0.093-0.001l0.092,0.007l0.093,0.016l0.093,0.023
				l0.093,0.031l0.093,0.037l0.093,0.043l0.093,0.048l0.182,0.111l0.179,0.126l0.173,0.137l0.167,0.145
				c0.107,0.1,0.213,0.198,0.312,0.291c0.098,0.095,0.189,0.185,0.271,0.266c0.096,0.095,0.196,0.196,0.3,0.298l0.15,0.162
				l0.146,0.169l0.137,0.175l0.126,0.181l0.112,0.186l0.05,0.094l0.044,0.096l0.039,0.096l0.034,0.097l0.028,0.097l0.021,0.098
				l0.014,0.098l0.007,0.099l-0.001,0.099l-0.009,0.098l-0.018,0.099l-0.026,0.098l-0.036,0.099l-0.046,0.097l-0.056,0.098
				l-0.066,0.097l-0.077,0.096l-0.09,0.095c-0.021,0.019-0.045,0.042-0.072,0.066c-0.029,0.023-0.062,0.049-0.095,0.076
				l-0.109,0.075l-0.059,0.034l-0.061,0.031l-0.061,0.026l-0.062,0.021l-0.06,0.014l-0.059,0.006h-0.028l-0.027-0.002l-0.028-0.005
				l-0.026-0.008l-0.024-0.011l-0.024-0.013l-0.023-0.017l-0.021-0.02l-0.015-0.017l-0.013-0.019l-0.011-0.021l-0.007-0.023
				l-0.011-0.051l-0.006-0.057c0.002-0.079,0.003-0.171,0.004-0.266l-0.002-0.079l-0.009-0.082l-0.015-0.083l-0.024-0.083
				l-0.033-0.083l-0.044-0.082l-0.058-0.082l-0.071-0.079l-0.072-0.065l-0.074-0.055l-0.078-0.045l-0.079-0.035l-0.082-0.025
				l-0.082-0.016l-0.083-0.006l-0.083,0.002l-0.083,0.011l-0.081,0.019l-0.081,0.027l-0.079,0.034l-0.077,0.042l-0.074,0.049
				l-0.07,0.056l-0.067,0.062l-0.064,0.072l-0.054,0.077l-0.045,0.082l-0.035,0.085l-0.024,0.088l-0.017,0.09l-0.006,0.091
				l0.002,0.092l0.01,0.092l0.02,0.091l0.027,0.09l0.034,0.087l0.044,0.085l0.051,0.081l0.059,0.077l0.064,0.072l0.084,0.078
				l0.086,0.069l0.088,0.059l0.091,0.051l0.092,0.043l0.093,0.034l0.095,0.026l0.096,0.019l0.097,0.013l0.099,0.005l0.098-0.001
				l0.099-0.007l0.099-0.013l0.099-0.019l0.1-0.024l0.099-0.029l0.194-0.071l0.191-0.087l0.187-0.101l0.18-0.112l0.172-0.121
				l0.162-0.126l0.149-0.13l0.139-0.131l0.11-0.116l0.104-0.119l0.095-0.121l0.088-0.124l0.08-0.126l0.072-0.128l0.064-0.13
				l0.058-0.132l0.05-0.134l0.042-0.135l0.035-0.136l0.027-0.138l0.019-0.139l0.012-0.14l0.005-0.14l-0.004-0.142l-0.01-0.141
				l-0.019-0.141l-0.025-0.142l-0.033-0.142l-0.041-0.141l-0.047-0.141l-0.057-0.14l-0.063-0.139l-0.07-0.139l-0.078-0.137
				l-0.085-0.136l-0.093-0.134l-0.101-0.133l-0.106-0.131l-0.115-0.129l-0.122-0.127l-0.104-0.096l-0.105-0.091l-0.108-0.086
				l-0.11-0.081l-0.113-0.077l-0.114-0.071l-0.116-0.065l-0.117-0.06l-0.119-0.055l-0.121-0.05l-0.121-0.044l-0.124-0.039
				l-0.123-0.033l-0.125-0.027l-0.124-0.021l-0.125-0.016l-0.126-0.01l-0.125-0.003l-0.125,0.002l-0.125,0.008l-0.124,0.015
				l-0.125,0.021l-0.122,0.027l-0.123,0.034l-0.12,0.04l-0.121,0.047l-0.118,0.053l-0.117,0.059l-0.115,0.067l-0.113,0.073
				l-0.111,0.08l-0.11,0.087l-0.114,0.102l-0.11,0.113l-0.106,0.125l-0.102,0.138l-0.097,0.149l-0.093,0.163l-0.087,0.175
				c-0.028,0.062-0.056,0.125-0.085,0.189l-1.125-0.256l-0.265-1.135l0.188-0.084l0.175-0.088l0.163-0.093l0.15-0.097l0.137-0.102
				l0.126-0.106l0.113-0.11l0.102-0.115l0.087-0.109l0.079-0.112l0.074-0.113l0.066-0.115l0.06-0.117l0.054-0.119l0.046-0.119
				l0.041-0.121l0.033-0.123l0.027-0.123l0.021-0.124l0.016-0.124l0.008-0.125l0.003-0.125l-0.004-0.125l-0.009-0.124l-0.016-0.125
				l-0.021-0.125l-0.028-0.124l-0.032-0.123l-0.039-0.122l-0.044-0.121l-0.049-0.12l-0.055-0.118l-0.062-0.117l-0.066-0.115
				l-0.071-0.114l-0.075-0.111l-0.082-0.11l-0.087-0.107l-0.092-0.105l-0.098-0.102l-0.126-0.124l-0.129-0.117l-0.132-0.109
				l-0.133-0.101l-0.133-0.094l-0.137-0.086l-0.137-0.079l-0.138-0.071l-0.139-0.064l-0.141-0.056l-0.14-0.048l-0.141-0.041
				l-0.142-0.033l-0.141-0.026l-0.141-0.018l-0.141-0.011l-0.142-0.003l-0.14,0.004l-0.139,0.013l-0.14,0.02l-0.137,0.027
				l-0.137,0.035l-0.135,0.043l-0.134,0.05l-0.132,0.057l-0.13,0.065l-0.128,0.072l-0.126,0.081l-0.124,0.087l-0.121,0.095
				l-0.119,0.104l-0.115,0.11l-0.13,0.136l-0.13,0.149l-0.128,0.16l-0.12,0.17l-0.113,0.178l-0.102,0.185l-0.09,0.19l-0.073,0.194
				l-0.029,0.098l-0.024,0.098l-0.02,0.098l-0.015,0.099l-0.007,0.098l-0.002,0.099l0.004,0.097l0.013,0.097l0.018,0.096
				l0.026,0.095l0.035,0.094l0.042,0.092l0.052,0.09l0.06,0.089l0.069,0.086l0.078,0.084l0.072,0.065l0.077,0.058l0.08,0.051
				l0.085,0.042l0.087,0.034l0.089,0.027l0.09,0.018l0.092,0.01l0.091,0.001l0.091-0.008l0.089-0.017l0.087-0.026l0.084-0.035
				l0.081-0.045l0.076-0.054l0.072-0.064l0.063-0.067l0.056-0.071l0.051-0.074l0.042-0.076l0.035-0.078l0.028-0.08l0.02-0.081
				l0.012-0.082l0.004-0.082l-0.006-0.082l-0.015-0.082l-0.024-0.08l-0.034-0.079l-0.045-0.077l-0.054-0.075l-0.065-0.072
				l-0.083-0.073l-0.082-0.059l-0.082-0.045l-0.083-0.033l-0.082-0.022l-0.081-0.014l-0.081-0.007l-0.078-0.002
				c-0.096,0.002-0.187,0.003-0.266,0.005l-0.056-0.004l-0.049-0.009l-0.021-0.007l-0.021-0.009l-0.017-0.011l-0.016-0.013
				l-0.022-0.023l-0.018-0.025l-0.016-0.025l-0.012-0.027l-0.008-0.027l-0.007-0.028l-0.003-0.028l-0.001-0.029l0.004-0.059
				l0.013-0.06l0.021-0.06l0.026-0.06l0.031-0.059l0.035-0.057L130,16.892c0.029-0.031,0.057-0.062,0.082-0.09
				c0.028-0.025,0.055-0.048,0.076-0.069l0.103-0.082l0.102-0.072l0.1-0.063l0.1-0.054l0.098-0.045l0.099-0.037l0.096-0.028
				l0.096-0.021l0.095-0.013l0.093-0.005l0.094,0.001l0.092,0.007l0.091,0.015l0.091,0.021l0.09,0.026l0.089,0.032l0.088,0.037
				l0.087,0.042l0.174,0.099l0.169,0.115l0.167,0.129l0.166,0.141l0.163,0.151l0.318,0.321c0.082,0.083,0.173,0.175,0.269,0.273
				c0.095,0.1,0.195,0.206,0.298,0.315l0.149,0.169l0.143,0.176l0.132,0.182l0.116,0.186l0.051,0.094l0.046,0.094l0.04,0.095
				l0.032,0.095l0.024,0.095l0.019,0.095l0.01,0.095v0.094l-0.01,0.093l-0.02,0.092l-0.03,0.091l-0.041,0.091l-0.054,0.089
				l-0.065,0.087l-0.079,0.086l-0.092,0.085l-0.066,0.051l-0.067,0.045l-0.069,0.041l-0.07,0.035l-0.072,0.029l-0.073,0.025
				l-0.074,0.02l-0.076,0.015l-0.077,0.01l-0.076,0.006l-0.078,0.002l-0.078-0.002l-0.157-0.015l-0.158-0.028l-0.156-0.041
				l-0.155-0.052l-0.152-0.062l-0.147-0.071l-0.144-0.078l-0.137-0.083l-0.129-0.088l-0.122-0.091l-0.019,0.019
				c0.053,0.085,0.112,0.182,0.177,0.286c0.061,0.107,0.126,0.222,0.194,0.343c0.063,0.125,0.127,0.255,0.194,0.389l0.092,0.208
				l0.087,0.215l0.079,0.22l0.068,0.225l0.057,0.228l0.043,0.228l0.026,0.228l0.007,0.113l0.002,0.113l-0.003,0.112l-0.01,0.111
				l-0.014,0.11l-0.019,0.108l-3.411,0.001v0.63h2.998v2.997h0.632v-3.408l0.11-0.019l0.112-0.013l0.113-0.008l0.113-0.002
				l0.229,0.009l0.229,0.026l0.228,0.042l0.226,0.055l0.223,0.068l0.219,0.077l0.212,0.085l0.207,0.092l0.197,0.096l0.188,0.099
				c0.121,0.069,0.236,0.135,0.345,0.197C135.854,24.236,135.952,24.298,136.041,24.354z"/>
			<rect x="129.167" y="24.781" fill="#A8BBE0" width="1.993" height="1.993"/>
			<path fill="#A8BBE0" d="M140.147,20.544l0.064-0.067l0.063-0.073l0.063-0.08l0.06-0.084l0.056-0.088l0.05-0.092l0.044-0.094
				l0.037-0.096l0.026-0.097l0.017-0.098l0.004-0.049l0.001-0.048l-0.002-0.048l-0.006-0.048l-0.009-0.047l-0.014-0.047
				l-0.017-0.046l-0.021-0.046l-0.025-0.045l-0.029-0.044l-0.034-0.043l-0.039-0.042l-0.036-0.033l-0.037-0.029l-0.04-0.024
				l-0.041-0.021l-0.043-0.018l-0.045-0.013l-0.045-0.009l-0.045-0.004l-0.045,0l-0.045,0.003l-0.045,0.008l-0.043,0.013
				l-0.041,0.018l-0.04,0.022l-0.038,0.027l-0.035,0.032l-0.031,0.033l-0.028,0.035l-0.024,0.036l-0.021,0.038l-0.018,0.039
				l-0.014,0.04l-0.01,0.04l-0.006,0.041l-0.001,0.041l0.002,0.04l0.008,0.041l0.012,0.04l0.018,0.039l0.021,0.039l0.027,0.037
				l0.032,0.036l0.04,0.036l0.042,0.029l0.04,0.022l0.041,0.016l0.041,0.011l0.04,0.007l0.079,0.005
				c0.046-0.001,0.092-0.002,0.131-0.002l0.027,0.002l0.024,0.004l0.021,0.008l0.008,0.005l0.009,0.006l0.019,0.024l0.013,0.025
				l0.009,0.028l0.002,0.028l-0.002,0.029l-0.008,0.03l-0.01,0.03l-0.013,0.029l-0.033,0.058l-0.039,0.052l-0.041,0.045
				l-0.038,0.034l-0.051,0.041l-0.05,0.036l-0.05,0.031l-0.049,0.027l-0.049,0.022l-0.048,0.018l-0.048,0.014l-0.048,0.01
				l-0.046,0.006l-0.047,0.003l-0.046,0l-0.046-0.004l-0.045-0.007l-0.045-0.01l-0.088-0.029l-0.087-0.04l-0.086-0.049l-0.084-0.057
				l-0.082-0.064l-0.162-0.145l-0.158-0.159c-0.079-0.083-0.178-0.185-0.28-0.291l-0.145-0.171l-0.065-0.089l-0.058-0.092
				l-0.048-0.093l-0.019-0.047l-0.017-0.047l-0.013-0.046l-0.009-0.047l-0.004-0.046v-0.047l0.004-0.046l0.01-0.046l0.016-0.045
				l0.02-0.044l0.026-0.044l0.033-0.043l0.038-0.042l0.046-0.042l0.033-0.025l0.033-0.022l0.069-0.037l0.072-0.026l0.074-0.018
				l0.076-0.008l0.076,0l0.078,0.007l0.078,0.014l0.078,0.021l0.077,0.025l0.074,0.031l0.073,0.035l0.071,0.039l0.068,0.041
				l0.123,0.089l0.01-0.009c-0.025-0.04-0.053-0.084-0.082-0.132c-0.028-0.049-0.059-0.102-0.09-0.157
				c-0.029-0.057-0.059-0.116-0.09-0.178l-0.086-0.193l-0.073-0.204l-0.029-0.104l-0.025-0.106l-0.018-0.105l-0.012-0.105
				l-0.003-0.105l0.005-0.103l0.049,0.022l0.052,0.016l0.055,0.01l0.056,0.003l0.046-0.002l0.045-0.007l0.042-0.011l0.041-0.015
				l0.039-0.019l0.037-0.022l0.033-0.026l0.032-0.028l0.028-0.032l0.025-0.035l0.023-0.037l0.018-0.039l0.016-0.042l0.012-0.042
				l0.006-0.044l0.003-0.045l-0.003-0.045l-0.006-0.044l-0.012-0.043l-0.016-0.041l-0.018-0.04l-0.023-0.037l-0.025-0.034
				l-0.028-0.032l-0.032-0.029l-0.033-0.025l-0.037-0.022l-0.039-0.019l-0.041-0.015l-0.042-0.011l-0.045-0.007l-0.046-0.002
				l-0.046,0.002l-0.044,0.007l-0.043,0.011l-0.04,0.015l-0.04,0.019l-0.036,0.022l-0.035,0.025l-0.031,0.029l-0.028,0.032
				l-0.026,0.034l-0.022,0.037l-0.02,0.04l-0.015,0.041l-0.011,0.043l-0.007,0.044l-0.002,0.045l0.003,0.05l0.009,0.048l0.014,0.046
				L138.736,17l-0.106,0.006l-0.106-0.003l-0.106-0.01l-0.107-0.018l-0.105-0.024l-0.104-0.029l-0.203-0.072l-0.193-0.084
				c-0.062-0.032-0.121-0.062-0.178-0.091c-0.056-0.032-0.108-0.063-0.159-0.092c-0.048-0.03-0.094-0.06-0.135-0.086l-0.01,0.01
				l0.09,0.126l0.042,0.068l0.039,0.071l0.035,0.074l0.031,0.076l0.026,0.077l0.021,0.078l0.015,0.078l0.007,0.079v0.077
				l-0.008,0.076l-0.018,0.075l-0.026,0.072l-0.038,0.069l-0.021,0.033l-0.025,0.032l-0.041,0.045l-0.042,0.039l-0.043,0.032
				l-0.043,0.027l-0.044,0.021l-0.044,0.015l-0.045,0.01l-0.045,0.006l-0.046,0l-0.046-0.004l-0.046-0.008l-0.046-0.011
				l-0.046-0.015l-0.046-0.019l-0.092-0.045l-0.09-0.055l-0.089-0.063l-0.168-0.139c-0.105-0.1-0.206-0.197-0.289-0.276
				c-0.048-0.047-0.097-0.096-0.148-0.147l-0.146-0.164l-0.067-0.087l-0.063-0.089l-0.056-0.092l-0.046-0.094l-0.037-0.096
				l-0.014-0.048l-0.01-0.048l-0.008-0.048l-0.004-0.049l0.001-0.049l0.005-0.048l0.009-0.049l0.014-0.048l0.017-0.049l0.023-0.048
				l0.027-0.048l0.033-0.048l0.038-0.047l0.044-0.047c0.01-0.009,0.022-0.021,0.035-0.033l0.047-0.037l0.055-0.037l0.059-0.032
				l0.03-0.013l0.03-0.011l0.03-0.007l0.028-0.003l0.028,0.001l0.026,0.006l0.025,0.012l0.021,0.018l0.008,0.008l0.006,0.01
				l0.01,0.022l0.004,0.025l0.003,0.028c-0.001,0.04-0.001,0.085-0.002,0.132l0.001,0.04l0.005,0.04l0.007,0.041l0.012,0.042
				l0.017,0.041l0.023,0.041l0.028,0.041l0.034,0.039l0.036,0.033l0.037,0.027l0.039,0.022l0.039,0.018l0.04,0.012l0.04,0.008
				l0.042,0.003l0.041,0l0.041-0.006l0.04-0.009l0.04-0.013l0.039-0.018l0.038-0.021l0.036-0.025l0.036-0.027l0.033-0.031
				l0.031-0.036l0.027-0.038l0.021-0.041l0.018-0.042l0.012-0.043l0.009-0.044l0.003-0.045l-0.001-0.045l-0.005-0.046l-0.01-0.045
				l-0.014-0.044l-0.018-0.043l-0.021-0.042l-0.024-0.04l-0.029-0.038l-0.033-0.036l-0.041-0.039l-0.042-0.034l-0.044-0.03
				l-0.044-0.025l-0.046-0.021l-0.046-0.017l-0.048-0.013l-0.046-0.01l-0.049-0.006l-0.049-0.003l-0.048,0l-0.049,0.004
				l-0.098,0.016l-0.098,0.026l-0.097,0.035l-0.095,0.043l-0.092,0.05l-0.09,0.055l-0.084,0.06l-0.08,0.063l-0.075,0.064
				l-0.067,0.065l-0.106,0.116l-0.091,0.122l-0.039,0.062l-0.036,0.063l-0.031,0.064l-0.028,0.065l-0.025,0.066l-0.021,0.067
				l-0.017,0.067l-0.014,0.069l-0.01,0.068l-0.006,0.069l-0.002,0.069l0.001,0.07l0.006,0.07l0.009,0.07l0.029,0.14l0.043,0.139
				l0.059,0.138l0.073,0.136l0.089,0.134l0.103,0.131l0.117,0.126l0.103,0.093l0.108,0.083l0.112,0.073l0.116,0.062l0.119,0.052
				l0.121,0.042l0.122,0.03l0.124,0.018l0.124,0.006l0.123-0.005l0.124-0.018l0.121-0.03l0.119-0.043l0.117-0.056l0.113-0.069
				l0.109-0.083l0.057-0.05l0.055-0.056l0.052-0.062l0.051-0.068l0.048-0.074l0.046-0.081l0.043-0.087l0.042-0.093l0.557,0.126
				l0.132,0.562l-0.094,0.042l-0.087,0.043l-0.08,0.046l-0.074,0.048l-0.067,0.05l-0.063,0.053l-0.056,0.054l-0.051,0.057
				l-0.082,0.109l-0.069,0.113l-0.056,0.116l-0.044,0.119l-0.03,0.121l-0.018,0.123l-0.006,0.123l0.006,0.124l0.019,0.123
				l0.029,0.122l0.041,0.121L137.714,20l0.063,0.116l0.073,0.111l0.083,0.107l0.094,0.103l0.127,0.119l0.13,0.104l0.134,0.089
				l0.136,0.074l0.139,0.059l0.139,0.044l0.069,0.017l0.069,0.013l0.071,0.009l0.069,0.005l0.069,0.001l0.069-0.002l0.068-0.006
				l0.069-0.009l0.068-0.014l0.066-0.017l0.067-0.021l0.066-0.025l0.065-0.028l0.064-0.032l0.063-0.036l0.062-0.04l0.122-0.09
				L140.147,20.544z"/>
		</g>
		<g>
			<path fill="#A8BBE0" d="M131.587,223.88l0.019,0.02l0.123-0.094l0.132-0.09l0.139-0.084l0.144-0.079l0.148-0.072l0.153-0.062
				l0.156-0.054l0.157-0.042l0.157-0.028l0.158-0.016l0.078-0.001l0.078,0.002l0.077,0.007l0.076,0.01l0.076,0.016l0.074,0.02
				l0.074,0.024l0.071,0.03l0.071,0.035l0.068,0.039l0.067,0.046l0.066,0.051l0.09,0.082l0.078,0.085l0.065,0.086l0.053,0.088
				l0.042,0.088l0.031,0.089l0.02,0.091l0.012,0.092l0.001,0.092l-0.008,0.093l-0.016,0.093l-0.023,0.093l-0.03,0.093l-0.037,0.093
				l-0.043,0.093l-0.048,0.092l-0.112,0.183l-0.126,0.179l-0.137,0.173l-0.145,0.167c-0.1,0.107-0.198,0.212-0.291,0.311
				c-0.096,0.099-0.185,0.189-0.266,0.272c-0.096,0.096-0.195,0.196-0.299,0.3l-0.162,0.15l-0.168,0.145l-0.176,0.138l-0.182,0.126
				l-0.186,0.112l-0.095,0.05l-0.096,0.044l-0.096,0.039l-0.097,0.034l-0.098,0.028l-0.098,0.021l-0.098,0.014l-0.099,0.007
				l-0.099-0.001l-0.1-0.009l-0.098-0.018l-0.099-0.026l-0.098-0.037l-0.098-0.046l-0.099-0.056l-0.096-0.065l-0.096-0.078
				l-0.096-0.09c-0.019-0.02-0.042-0.044-0.067-0.072c-0.022-0.028-0.049-0.061-0.075-0.094l-0.075-0.109l-0.033-0.059l-0.031-0.061
				l-0.026-0.061l-0.021-0.062l-0.014-0.061l-0.007-0.058V226.4l0.003-0.027l0.005-0.027l0.008-0.026l0.011-0.024l0.014-0.025
				l0.017-0.022l0.02-0.021l0.017-0.015l0.02-0.014l0.021-0.01l0.023-0.007l0.05-0.012l0.057-0.005
				c0.08,0.002,0.171,0.003,0.267,0.004l0.079-0.002l0.081-0.009l0.083-0.016l0.083-0.023l0.084-0.034l0.082-0.044l0.081-0.058
				l0.079-0.07l0.065-0.072l0.055-0.075l0.045-0.077l0.035-0.08l0.024-0.081l0.016-0.082l0.008-0.084l-0.003-0.082l-0.011-0.083
				l-0.02-0.082l-0.026-0.08l-0.035-0.079l-0.042-0.077l-0.05-0.074l-0.056-0.07l-0.062-0.067l-0.072-0.064l-0.077-0.054
				l-0.081-0.045l-0.086-0.035l-0.087-0.024l-0.09-0.017l-0.092-0.006l-0.093,0.001l-0.092,0.011l-0.092,0.019l-0.09,0.028
				l-0.088,0.034l-0.085,0.044l-0.08,0.051l-0.078,0.059l-0.071,0.064l-0.077,0.084l-0.069,0.086l-0.06,0.088l-0.05,0.091
				l-0.043,0.092l-0.034,0.093l-0.027,0.095l-0.02,0.096l-0.012,0.097l-0.005,0.098l0.001,0.099l0.007,0.099l0.014,0.099
				l0.019,0.099l0.023,0.099l0.029,0.1l0.071,0.194l0.087,0.191l0.102,0.187l0.112,0.179l0.12,0.173l0.126,0.161l0.131,0.15
				l0.132,0.138l0.115,0.111l0.119,0.104l0.122,0.095l0.123,0.088l0.126,0.08l0.129,0.072l0.13,0.064l0.132,0.058l0.134,0.05
				l0.136,0.042l0.137,0.034l0.138,0.027l0.139,0.02l0.14,0.012l0.142,0.005l0.141-0.004l0.141-0.01l0.142-0.019l0.143-0.025
				l0.141-0.033l0.142-0.041l0.14-0.048l0.141-0.056l0.14-0.063l0.138-0.071l0.138-0.077l0.136-0.085l0.134-0.093l0.134-0.101
				l0.131-0.107l0.129-0.115l0.127-0.121l0.097-0.104l0.09-0.106l0.087-0.107l0.081-0.111l0.076-0.112l0.071-0.114l0.065-0.116
				l0.061-0.118l0.055-0.118l0.05-0.121l0.044-0.122l0.038-0.123l0.033-0.124l0.027-0.124l0.021-0.124l0.016-0.126l0.011-0.125
				l0.003-0.125l-0.003-0.126l-0.008-0.124l-0.015-0.124l-0.021-0.125l-0.028-0.122l-0.032-0.123l-0.041-0.121l-0.046-0.12
				l-0.054-0.118l-0.059-0.117l-0.067-0.115l-0.073-0.113l-0.079-0.111l-0.087-0.11l-0.102-0.114l-0.113-0.11l-0.126-0.106
				l-0.137-0.102l-0.15-0.097l-0.163-0.093l-0.175-0.088c-0.062-0.027-0.124-0.055-0.188-0.084l0.256-1.125l1.135-0.265l0.084,0.188
				l0.088,0.175l0.093,0.163l0.097,0.15l0.102,0.137l0.106,0.125l0.109,0.114l0.115,0.101l0.109,0.087l0.111,0.08l0.113,0.074
				l0.115,0.065l0.116,0.061l0.119,0.053l0.12,0.047l0.12,0.04l0.122,0.034l0.122,0.027l0.124,0.021l0.123,0.016l0.125,0.008
				l0.125,0.003l0.125-0.004l0.124-0.009l0.124-0.016l0.125-0.021l0.123-0.027l0.123-0.033l0.121-0.038l0.122-0.044l0.12-0.049
				l0.117-0.056l0.117-0.061l0.115-0.066l0.113-0.071l0.112-0.076l0.109-0.081l0.108-0.087l0.104-0.093l0.103-0.097l0.125-0.126
				l0.116-0.129l0.108-0.132l0.102-0.133l0.094-0.134l0.086-0.136l0.078-0.137l0.071-0.138l0.063-0.14l0.057-0.14l0.048-0.14
				l0.041-0.142l0.034-0.141l0.025-0.141l0.019-0.141l0.01-0.142l0.004-0.141l-0.005-0.14l-0.012-0.14l-0.021-0.139l-0.027-0.137
				l-0.035-0.137l-0.042-0.136l-0.049-0.133l-0.058-0.132l-0.065-0.13l-0.073-0.128l-0.079-0.127l-0.088-0.123l-0.096-0.122
				l-0.103-0.118l-0.111-0.115l-0.136-0.131l-0.149-0.13l-0.16-0.127l-0.17-0.12l-0.179-0.114l-0.185-0.101l-0.19-0.09l-0.193-0.073
				l-0.099-0.029l-0.098-0.024l-0.099-0.02l-0.099-0.015l-0.099-0.008l-0.099-0.002l-0.098,0.005l-0.096,0.012l-0.097,0.019
				l-0.095,0.026l-0.093,0.035l-0.093,0.042l-0.091,0.051l-0.089,0.061l-0.087,0.068l-0.084,0.079l-0.065,0.072l-0.058,0.077
				l-0.051,0.08l-0.043,0.084l-0.034,0.087l-0.027,0.09l-0.017,0.09l-0.011,0.092l-0.001,0.091l0.009,0.091l0.017,0.089l0.025,0.087
				l0.035,0.084l0.045,0.08l0.055,0.077l0.063,0.072l0.067,0.063l0.071,0.056l0.073,0.05l0.076,0.043l0.079,0.035l0.079,0.028
				l0.082,0.02l0.081,0.012l0.082,0.004l0.082-0.006l0.081-0.015l0.08-0.024l0.08-0.034l0.077-0.045l0.074-0.054l0.072-0.065
				l0.074-0.083l0.058-0.082l0.045-0.082l0.033-0.084l0.022-0.081l0.015-0.081l0.008-0.081l0.002-0.078
				c-0.002-0.096-0.004-0.187-0.005-0.266l0.004-0.056l0.009-0.05l0.007-0.021l0.009-0.021l0.01-0.018l0.014-0.016l0.023-0.021
				l0.024-0.018l0.025-0.016l0.027-0.012l0.027-0.008l0.027-0.007l0.028-0.004l0.029-0.001l0.059,0.005l0.061,0.013l0.06,0.021
				l0.06,0.026l0.059,0.031l0.057,0.035l0.106,0.079c0.031,0.029,0.063,0.057,0.09,0.082c0.025,0.028,0.049,0.054,0.069,0.076
				l0.081,0.103l0.073,0.102l0.063,0.1l0.054,0.1l0.046,0.098l0.037,0.098l0.028,0.097l0.021,0.096l0.013,0.095l0.006,0.093
				l-0.001,0.094l-0.009,0.091l-0.015,0.092l-0.021,0.091l-0.026,0.09l-0.032,0.088l-0.037,0.088l-0.043,0.088l-0.099,0.173
				l-0.115,0.17l-0.129,0.167l-0.141,0.166l-0.151,0.162l-0.32,0.319c-0.083,0.082-0.175,0.172-0.273,0.269
				c-0.101,0.095-0.206,0.195-0.314,0.298l-0.17,0.149l-0.177,0.143l-0.181,0.132l-0.186,0.116l-0.095,0.051l-0.094,0.046
				l-0.095,0.039l-0.095,0.033l-0.096,0.024l-0.094,0.019l-0.095,0.009h-0.094l-0.094-0.009l-0.092-0.021l-0.092-0.03l-0.091-0.041
				l-0.089-0.053l-0.087-0.065l-0.087-0.079l-0.084-0.093l-0.051-0.065l-0.046-0.067l-0.04-0.07l-0.035-0.07l-0.029-0.072
				l-0.024-0.073l-0.021-0.073l-0.015-0.076l-0.011-0.077l-0.006-0.077l-0.003-0.077l0.002-0.078l0.015-0.157l0.029-0.158
				l0.04-0.156l0.053-0.155l0.062-0.152l0.071-0.148l0.077-0.143l0.084-0.137l0.088-0.129l0.09-0.122l-0.018-0.02
				c-0.085,0.054-0.182,0.113-0.286,0.178c-0.106,0.061-0.222,0.125-0.343,0.194c-0.124,0.062-0.255,0.127-0.389,0.193l-0.208,0.093
				l-0.215,0.087l-0.22,0.078l-0.226,0.069l-0.227,0.057l-0.228,0.043l-0.229,0.026l-0.113,0.006l-0.112,0.002l-0.112-0.002
				l-0.111-0.01l-0.109-0.014l-0.108-0.02l-0.001-3.411h-0.63l-0.001,2.999h-2.996v0.631h3.408l0.019,0.111l0.014,0.112l0.007,0.113
				l0.003,0.113l-0.009,0.228l-0.027,0.23l-0.042,0.228l-0.055,0.226l-0.067,0.223l-0.077,0.219l-0.086,0.212l-0.092,0.207
				l-0.096,0.197l-0.098,0.188c-0.069,0.121-0.136,0.236-0.198,0.345C131.706,223.692,131.644,223.791,131.587,223.88z"/>
			<rect x="129.168" y="217.005" fill="#A8BBE0" width="1.993" height="1.994"/>
			<path fill="#A8BBE0" d="M135.397,227.986l0.067,0.063l0.074,0.064l0.078,0.063l0.085,0.059l0.088,0.057l0.092,0.05l0.095,0.044
				l0.096,0.037l0.097,0.026l0.098,0.017l0.049,0.004l0.049,0.001l0.048-0.003l0.048-0.005l0.048-0.01l0.047-0.014l0.046-0.017
				l0.046-0.021l0.045-0.025l0.044-0.029l0.043-0.034l0.042-0.039l0.032-0.036l0.028-0.037l0.025-0.04l0.021-0.042l0.017-0.043
				l0.014-0.044l0.009-0.045l0.005-0.045v-0.045l-0.004-0.045l-0.008-0.045l-0.014-0.043l-0.017-0.041l-0.022-0.04l-0.027-0.039
				l-0.032-0.034l-0.032-0.031l-0.035-0.028l-0.036-0.024l-0.038-0.021l-0.039-0.018l-0.039-0.014l-0.041-0.01l-0.04-0.006
				l-0.04-0.002l-0.041,0.003l-0.04,0.008l-0.04,0.012l-0.039,0.018l-0.038,0.021l-0.038,0.026l-0.035,0.033l-0.036,0.04
				l-0.029,0.041l-0.021,0.041l-0.017,0.041l-0.011,0.041l-0.008,0.04l-0.005,0.079c0.001,0.046,0.002,0.091,0.003,0.131
				l-0.002,0.027l-0.004,0.024l-0.008,0.021l-0.005,0.008l-0.007,0.008l-0.023,0.02l-0.027,0.013l-0.026,0.009l-0.028,0.002
				l-0.029-0.002l-0.03-0.008l-0.029-0.01l-0.029-0.013l-0.058-0.033l-0.052-0.039l-0.045-0.041l-0.034-0.038l-0.041-0.051
				l-0.035-0.05l-0.031-0.05l-0.027-0.049l-0.022-0.05l-0.018-0.047l-0.014-0.048l-0.011-0.048l-0.006-0.047l-0.004-0.046
				l0.001-0.046l0.004-0.046l0.007-0.045l0.011-0.045l0.028-0.089l0.04-0.087l0.049-0.085l0.057-0.084l0.064-0.082l0.145-0.162
				l0.159-0.158c0.082-0.08,0.184-0.179,0.291-0.281l0.171-0.145l0.09-0.064l0.092-0.058l0.093-0.048l0.048-0.02l0.046-0.016
				l0.047-0.013l0.047-0.009l0.048-0.005h0.046l0.046,0.005l0.046,0.009l0.045,0.016l0.045,0.021l0.045,0.026l0.043,0.033
				l0.043,0.038l0.041,0.046l0.025,0.033l0.022,0.032l0.037,0.07l0.026,0.072l0.018,0.074l0.009,0.075l0.001,0.077l-0.008,0.078
				l-0.015,0.078l-0.021,0.078l-0.025,0.076l-0.031,0.075l-0.034,0.073l-0.039,0.07l-0.041,0.069l-0.089,0.123l0.01,0.009
				c0.04-0.024,0.084-0.052,0.132-0.081c0.049-0.028,0.102-0.059,0.157-0.09c0.057-0.029,0.116-0.06,0.177-0.09l0.192-0.087
				l0.204-0.073l0.105-0.028l0.104-0.025l0.106-0.019l0.105-0.012l0.104-0.002l0.104,0.005l-0.022,0.049l-0.017,0.052l-0.01,0.054
				l-0.004,0.057l0.003,0.045l0.007,0.045l0.011,0.042l0.015,0.042l0.019,0.039l0.022,0.036l0.025,0.034l0.029,0.032l0.031,0.028
				l0.035,0.025l0.036,0.022l0.039,0.019l0.04,0.016l0.043,0.011l0.044,0.007l0.046,0.003l0.046-0.003l0.045-0.007l0.042-0.011
				l0.041-0.016l0.04-0.019l0.036-0.022l0.035-0.025l0.03-0.028l0.029-0.032l0.026-0.034l0.021-0.036l0.02-0.039l0.015-0.042
				l0.011-0.042l0.007-0.045l0.002-0.045l-0.002-0.046l-0.007-0.044l-0.011-0.043l-0.015-0.04l-0.02-0.04l-0.021-0.036l-0.026-0.035
				l-0.029-0.032l-0.03-0.028l-0.035-0.025l-0.036-0.022l-0.04-0.02l-0.041-0.015l-0.042-0.011l-0.045-0.008l-0.046-0.002
				l-0.049,0.003l-0.049,0.01l-0.047,0.014l-0.045,0.018l-0.005-0.105l0.003-0.106l0.01-0.106l0.018-0.107l0.023-0.105l0.029-0.105
				l0.072-0.202l0.085-0.193c0.031-0.062,0.062-0.121,0.092-0.178c0.032-0.056,0.062-0.108,0.091-0.159
				c0.031-0.048,0.06-0.094,0.087-0.135l-0.011-0.01l-0.125,0.09l-0.068,0.042l-0.071,0.038l-0.073,0.036l-0.076,0.031l-0.077,0.026
				l-0.077,0.021l-0.079,0.015l-0.078,0.007h-0.076l-0.077-0.008l-0.074-0.018l-0.071-0.026l-0.069-0.038l-0.034-0.021l-0.032-0.025
				l-0.044-0.042l-0.039-0.041l-0.032-0.043l-0.026-0.043l-0.021-0.044l-0.016-0.045l-0.01-0.045l-0.005-0.044l-0.001-0.046
				l0.004-0.046l0.007-0.046l0.012-0.046l0.015-0.047l0.019-0.045l0.046-0.092l0.055-0.09l0.063-0.089l0.14-0.168
				c0.1-0.105,0.196-0.206,0.275-0.289c0.047-0.048,0.097-0.097,0.147-0.148l0.164-0.146l0.086-0.067l0.09-0.063l0.093-0.055
				l0.094-0.047l0.096-0.036l0.048-0.014l0.049-0.01l0.049-0.008l0.048-0.004l0.049,0.001l0.05,0.005l0.048,0.008l0.049,0.014
				l0.049,0.018l0.048,0.023l0.049,0.027l0.048,0.032l0.047,0.039l0.048,0.044c0.009,0.01,0.021,0.022,0.033,0.035l0.037,0.047
				l0.037,0.055l0.032,0.059l0.013,0.03l0.011,0.03l0.007,0.03l0.003,0.028l-0.001,0.028l-0.006,0.026l-0.013,0.024l-0.018,0.022
				l-0.009,0.007l-0.009,0.007l-0.022,0.009l-0.025,0.005l-0.028,0.003c-0.039-0.001-0.084-0.001-0.132-0.002l-0.038,0.001
				l-0.04,0.005l-0.042,0.007l-0.041,0.012l-0.041,0.017l-0.041,0.023l-0.04,0.028l-0.039,0.034l-0.032,0.036l-0.027,0.037
				l-0.022,0.038l-0.017,0.04l-0.013,0.04l-0.007,0.04l-0.004,0.041l0.001,0.041l0.006,0.042l0.009,0.04l0.014,0.04l0.018,0.038
				l0.021,0.039l0.024,0.036l0.028,0.036l0.031,0.032l0.034,0.032l0.038,0.026l0.041,0.022l0.042,0.018l0.043,0.012l0.045,0.008
				l0.045,0.004l0.045-0.001l0.046-0.006l0.045-0.009l0.045-0.014l0.044-0.018l0.041-0.021l0.04-0.025l0.039-0.029l0.035-0.032
				l0.039-0.041l0.033-0.042l0.029-0.044l0.025-0.044l0.021-0.046l0.017-0.046l0.014-0.048l0.009-0.047l0.007-0.048l0.003-0.049
				l-0.001-0.048l-0.004-0.049l-0.016-0.098l-0.025-0.099l-0.036-0.096l-0.043-0.095l-0.05-0.092l-0.056-0.09l-0.06-0.084
				l-0.063-0.08l-0.065-0.075l-0.064-0.068l-0.116-0.105l-0.122-0.091l-0.062-0.039l-0.064-0.036l-0.063-0.032l-0.066-0.028
				l-0.065-0.024l-0.067-0.021l-0.067-0.017l-0.068-0.014l-0.069-0.011l-0.069-0.005l-0.069-0.002l-0.069,0.001l-0.069,0.005
				l-0.07,0.01l-0.141,0.029l-0.139,0.043l-0.139,0.059l-0.136,0.073l-0.135,0.089l-0.13,0.102l-0.127,0.117l-0.093,0.104
				l-0.083,0.108l-0.072,0.112l-0.063,0.116l-0.052,0.119l-0.04,0.12l-0.03,0.123l-0.019,0.123l-0.006,0.125l0.005,0.123
				l0.018,0.124l0.03,0.121l0.042,0.119l0.056,0.117l0.069,0.113l0.083,0.109l0.05,0.057l0.056,0.055l0.063,0.052l0.068,0.051
				l0.074,0.047l0.08,0.047l0.087,0.043l0.093,0.041l-0.127,0.558l-0.561,0.132l-0.041-0.094l-0.044-0.087l-0.046-0.08l-0.049-0.074
				l-0.05-0.067l-0.053-0.063l-0.055-0.056l-0.057-0.051l-0.108-0.082l-0.114-0.069l-0.116-0.056l-0.118-0.044l-0.121-0.03
				l-0.122-0.018l-0.124-0.007l-0.123,0.007l-0.123,0.019l-0.122,0.029l-0.12,0.041l-0.118,0.052l-0.115,0.063l-0.11,0.073
				l-0.108,0.083l-0.103,0.094l-0.119,0.127l-0.103,0.13l-0.09,0.134l-0.074,0.136l-0.059,0.139l-0.045,0.139l-0.017,0.069
				l-0.013,0.069l-0.009,0.07l-0.005,0.07l-0.002,0.069l0.002,0.069l0.007,0.068l0.009,0.069l0.014,0.068l0.018,0.066l0.021,0.066
				l0.025,0.067l0.028,0.064l0.031,0.065l0.036,0.063l0.04,0.062l0.091,0.122L135.397,227.986z"/>
		</g>
	</g>
</g>
</svg>
