<?xml version="1.0" encoding="utf-8"?>
<!-- Generator: Adobe Illustrator 16.0.0, SVG Export Plug-In . SVG Version: 6.00 Build 0)  -->
<!DOCTYPE svg PUBLIC "-//W3C//DTD SVG 1.1//EN" "http://www.w3.org/Graphics/SVG/1.1/DTD/svg11.dtd">
<svg version="1.1" id="Layer_1" xmlns="http://www.w3.org/2000/svg" xmlns:xlink="http://www.w3.org/1999/xlink" x="0px" y="0px"
	 width="153.07px" height="243.779px" viewBox="0 0 153.07 243.779" enable-background="new 0 0 153.07 243.779"
	 xml:space="preserve">
<g id="Layer_2">
	<rect x="0" y="0.001" fill="none" width="153.07" height="243.777"/>
</g>
<g>
	<rect x="111.622" y="217.005" fill="#231F20" width="17.545" height="1.994"/>
	<path fill="#231F20" d="M111.622,220.003h17.545v0.631h-8.617c0.793,1.311,2.86,1.891,3.896,2.111v0.033
		c-1.017,0.119-2.327,0.664-2.43,1.806c-0.155,1.755,2.188,1.636,3.378,1.652c1.566,0.033,3.102-0.103,3.257-1.925
		c0.034-0.308-0.051-1.005-0.5-1.005c-0.138,0-0.275,0.188-0.448,0.357c-0.188,0.188-0.431,0.356-0.827,0.356
		c-0.688,0-1.067-0.544-1.067-1.176c0-0.664,0.604-1.158,1.275-1.158c1.619,0,2.085,1.874,2.085,3.118
		c0,2.197-1.638,3.678-4.103,3.66c-1.947-0.016-3.55-1.209-3.722-3.115c-0.053-0.512,0.052-1.09,0.326-1.755l-1.273-0.783
		l-1.259,0.783c0.275,0.665,0.379,1.243,0.326,1.755c-0.172,1.906-1.792,3.101-3.738,3.133c-2.447,0-4.104-1.479-4.104-3.678
		c0-1.261,0.501-3.118,2.104-3.118c0.672,0,1.293,0.494,1.293,1.158c0,0.632-0.397,1.176-1.087,1.176
		c-0.378,0-0.638-0.17-0.827-0.356c-0.172-0.17-0.312-0.357-0.465-0.357c-0.414,0-0.518,0.715-0.518,1.005
		c0,1.822,1.981,1.958,3.377,1.925c1.189-0.018,3.447,0.067,3.291-1.652c-0.103-1.142-1.412-1.687-2.445-1.806v-0.033
		c1.086-0.222,3.067-0.782,3.911-2.111h-8.635V220.003L111.622,220.003z"/>
</g>
<g>
	<rect x="21.91" y="26.774" fill="#231F20" width="1.994" height="17.294"/>
	<path fill="#231F20" d="M20.906,26.774v17.294h-0.631v-8.493c-1.312,0.78-1.892,2.818-2.111,3.839H18.13
		c-0.118-1.002-0.664-2.293-1.805-2.396c-1.754-0.152-1.635,2.157-1.653,3.329c-0.033,1.546,0.104,3.06,1.926,3.211
		c0.306,0.033,1.004-0.051,1.004-0.493c0-0.136-0.188-0.271-0.357-0.441c-0.188-0.188-0.356-0.425-0.356-0.815
		c0-0.679,0.544-1.053,1.175-1.053c0.664,0,1.158,0.595,1.158,1.258c0,1.597-1.874,2.056-3.118,2.056
		c-2.197,0-3.68-1.613-3.661-4.043c0.016-1.92,1.208-3.5,3.116-3.67c0.511-0.051,1.09,0.052,1.755,0.324l0.783-1.257l-0.783-1.241
		c-0.665,0.272-1.244,0.374-1.755,0.323c-1.907-0.169-3.101-1.766-3.135-3.687c0-2.412,1.481-4.043,3.68-4.043
		c1.261,0,3.118,0.493,3.118,2.072c0,0.663-0.495,1.274-1.158,1.274c-0.631,0-1.175-0.392-1.175-1.07
		c0-0.373,0.17-0.628,0.356-0.815c0.17-0.169,0.357-0.306,0.357-0.458c0-0.407-0.714-0.509-1.004-0.509
		c-1.822,0-1.959,1.954-1.926,3.329c0.019,1.172-0.067,3.398,1.653,3.245c1.141-0.102,1.687-1.393,1.805-2.412h0.034
		c0.221,1.07,0.783,3.024,2.111,3.856v-8.512h0.631V26.774z"/>
</g>
<g>
	<rect x="23.903" y="24.781" fill="#231F20" width="17.544" height="1.992"/>
	<path fill="#231F20" d="M41.447,23.777H23.903v-0.631h8.617c-0.792-1.311-2.861-1.89-3.896-2.11V21
		c1.018-0.119,2.327-0.664,2.431-1.805c0.154-1.755-2.188-1.635-3.377-1.652c-1.568-0.034-3.104,0.103-3.259,1.925
		c-0.033,0.307,0.053,1.004,0.5,1.004c0.139,0,0.275-0.187,0.448-0.356c0.189-0.188,0.431-0.357,0.827-0.357
		c0.688,0,1.069,0.545,1.069,1.175c0,0.664-0.604,1.158-1.276,1.158c-1.62,0-2.085-1.874-2.085-3.118
		c0-2.197,1.638-3.679,4.102-3.661c1.948,0.017,3.551,1.209,3.724,3.116c0.052,0.511-0.053,1.089-0.328,1.754l1.275,0.784
		l1.259-0.784c-0.276-0.665-0.38-1.244-0.328-1.754c0.172-1.907,1.792-3.1,3.74-3.134c2.446,0,4.101,1.48,4.101,3.679
		c0,1.261-0.5,3.118-2.102,3.118c-0.673,0-1.292-0.495-1.292-1.158c0-0.63,0.396-1.175,1.086-1.175c0.378,0,0.637,0.17,0.826,0.357
		c0.173,0.17,0.311,0.356,0.466,0.356c0.413,0,0.517-0.714,0.517-1.004c0-1.822-1.982-1.959-3.377-1.925
		c-1.189,0.018-3.447-0.067-3.292,1.652c0.103,1.142,1.413,1.686,2.447,1.805v0.034c-1.085,0.221-3.067,0.783-3.912,2.11h8.634
		L41.447,23.777L41.447,23.777z"/>
</g>
<g>
	<rect x="129.167" y="199.713" fill="#231F20" width="1.993" height="17.293"/>
	<path fill="#231F20" d="M132.164,217.006v-17.293h0.632v8.494c1.311-0.781,1.891-2.82,2.111-3.839h0.033
		c0.119,1.002,0.664,2.293,1.805,2.395c1.755,0.153,1.636-2.157,1.653-3.329c0.034-1.547-0.104-3.059-1.925-3.211
		c-0.309-0.034-1.004,0.05-1.004,0.492c0,0.137,0.187,0.271,0.355,0.442c0.188,0.187,0.357,0.425,0.357,0.814
		c0,0.679-0.544,1.054-1.176,1.054c-0.665,0-1.157-0.595-1.157-1.258c0-1.597,1.873-2.056,3.116-2.056
		c2.197,0,3.68,1.614,3.661,4.043c-0.017,1.92-1.21,3.499-3.115,3.67c-0.512,0.051-1.091-0.052-1.755-0.323l-0.783,1.258l0.783,1.24
		c0.664-0.271,1.243-0.374,1.755-0.323c1.905,0.17,3.1,1.768,3.134,3.688c0,2.412-1.481,4.042-3.68,4.042
		c-1.261,0-3.116-0.492-3.116-2.071c0-0.663,0.492-1.273,1.157-1.273c0.632,0,1.176,0.391,1.176,1.069
		c0,0.373-0.17,0.628-0.357,0.814c-0.17,0.171-0.355,0.307-0.355,0.46c0,0.407,0.714,0.509,1.004,0.509
		c1.821,0,1.959-1.953,1.925-3.329c-0.019-1.172,0.066-3.396-1.653-3.245c-1.141,0.103-1.686,1.395-1.805,2.412h-0.033
		c-0.222-1.069-0.783-3.022-2.111-3.855v8.511L132.164,217.006L132.164,217.006z"/>
</g>
<g>
	<path fill="#231F20" d="M21.483,19.9l-0.02-0.019l-0.123,0.093l-0.131,0.089l-0.139,0.085l-0.144,0.079l-0.149,0.071l-0.153,0.063
		l-0.154,0.054l-0.158,0.041l-0.158,0.028L19.997,20.5l-0.078,0.002L19.841,20.5l-0.076-0.006l-0.077-0.011l-0.076-0.015
		l-0.074-0.021l-0.073-0.024l-0.071-0.03l-0.07-0.035l-0.07-0.041l-0.066-0.045l-0.066-0.051l-0.091-0.083l-0.078-0.084
		l-0.064-0.085l-0.054-0.087l-0.042-0.089l-0.031-0.09l-0.021-0.09l-0.01-0.092l-0.001-0.092l0.007-0.092l0.016-0.093l0.023-0.094
		l0.031-0.093l0.036-0.093l0.043-0.092l0.049-0.092l0.11-0.183l0.127-0.178l0.138-0.174l0.145-0.167
		c0.101-0.106,0.198-0.212,0.291-0.312c0.095-0.097,0.186-0.188,0.266-0.271c0.096-0.097,0.195-0.197,0.299-0.3l0.162-0.15
		l0.169-0.146l0.175-0.137l0.181-0.126l0.187-0.112l0.094-0.049l0.096-0.045l0.096-0.04l0.098-0.034l0.097-0.026l0.098-0.021
		l0.099-0.014l0.098-0.007h0.1l0.098,0.009l0.099,0.018l0.1,0.027l0.098,0.036l0.098,0.046l0.098,0.056l0.097,0.067l0.096,0.078
		l0.096,0.089c0.02,0.021,0.042,0.046,0.066,0.073c0.023,0.028,0.049,0.061,0.076,0.094l0.074,0.11l0.035,0.059l0.03,0.061
		l0.026,0.061l0.021,0.061l0.014,0.061l0.006,0.059v0.029l-0.003,0.028l-0.005,0.026l-0.008,0.026l-0.011,0.025l-0.014,0.023
		l-0.016,0.023l-0.021,0.021l-0.017,0.016l-0.021,0.012l-0.021,0.01L23.124,17.6l-0.051,0.011l-0.057,0.006
		c-0.079-0.001-0.171-0.002-0.267-0.004l-0.079,0.003l-0.082,0.008l-0.083,0.015l-0.083,0.024l-0.083,0.032l-0.083,0.046
		l-0.081,0.057l-0.079,0.071l-0.065,0.071l-0.055,0.076l-0.045,0.078l-0.035,0.08l-0.025,0.081l-0.016,0.083l-0.006,0.083
		l0.002,0.083l0.011,0.082l0.019,0.082l0.027,0.081l0.035,0.079l0.042,0.077l0.049,0.073l0.056,0.071l0.063,0.068l0.072,0.063
		l0.077,0.054l0.081,0.045l0.086,0.034l0.088,0.025l0.089,0.016l0.092,0.007l0.092-0.002l0.092-0.01l0.093-0.019l0.09-0.027
		l0.088-0.035l0.084-0.043l0.082-0.051l0.077-0.059l0.071-0.065l0.078-0.083l0.068-0.086l0.06-0.087l0.052-0.09l0.042-0.092
		l0.033-0.094l0.027-0.095l0.02-0.096l0.012-0.098l0.006-0.097l-0.001-0.098l-0.007-0.1l-0.014-0.099l-0.019-0.099l-0.024-0.1
		L23.81,17.54l-0.071-0.195l-0.087-0.192l-0.102-0.186l-0.111-0.18l-0.121-0.171l-0.127-0.162l-0.13-0.151l-0.131-0.138l-0.116-0.11
		l-0.119-0.103l-0.121-0.097l-0.124-0.087l-0.126-0.08l-0.128-0.072l-0.13-0.065l-0.132-0.057l-0.135-0.05l-0.136-0.042
		l-0.136-0.034l-0.138-0.027l-0.14-0.021l-0.14-0.012l-0.141-0.004l-0.142,0.003l-0.141,0.01l-0.143,0.02l-0.141,0.024l-0.142,0.033
		l-0.142,0.041l-0.141,0.048l-0.141,0.057l-0.139,0.063l-0.139,0.07l-0.138,0.078l-0.136,0.085l-0.135,0.093l-0.132,0.1
		l-0.131,0.107l-0.129,0.115l-0.127,0.122l-0.096,0.104l-0.092,0.105l-0.086,0.107l-0.081,0.111l-0.076,0.112l-0.071,0.114
		l-0.064,0.116l-0.062,0.118l-0.055,0.12l-0.05,0.121l-0.044,0.122l-0.039,0.123L17.79,17.87l-0.026,0.125l-0.021,0.125
		l-0.016,0.125l-0.01,0.125l-0.004,0.125l0.002,0.125l0.009,0.125l0.015,0.125l0.021,0.124l0.027,0.124l0.034,0.122l0.04,0.12
		l0.047,0.12L17.96,19.6l0.061,0.117l0.066,0.116l0.073,0.112l0.08,0.111l0.087,0.109l0.103,0.115l0.112,0.109l0.125,0.106
		l0.139,0.102l0.149,0.097l0.163,0.093l0.175,0.088c0.063,0.026,0.125,0.055,0.189,0.083l-0.256,1.126l-1.136,0.264l-0.083-0.188
		l-0.088-0.176l-0.093-0.162l-0.097-0.149l-0.103-0.138l-0.104-0.125l-0.11-0.113l-0.115-0.101l-0.108-0.088l-0.111-0.079
		l-0.114-0.073l-0.114-0.067l-0.117-0.06l-0.118-0.054l-0.12-0.047l-0.121-0.041l-0.122-0.033l-0.123-0.027l-0.124-0.021
		l-0.124-0.015l-0.125-0.009l-0.124-0.003l-0.125,0.003l-0.125,0.009l-0.125,0.016l-0.124,0.021l-0.124,0.027l-0.123,0.032
		l-0.122,0.039l-0.121,0.044l-0.12,0.049l-0.119,0.056l-0.117,0.061l-0.115,0.066l-0.113,0.071l-0.111,0.075l-0.11,0.082
		l-0.106,0.087l-0.105,0.092l-0.103,0.097l-0.124,0.127l-0.117,0.129l-0.108,0.131l-0.101,0.133l-0.094,0.135l-0.086,0.136
		l-0.079,0.137l-0.071,0.139l-0.063,0.139l-0.057,0.14l-0.049,0.141l-0.041,0.141l-0.033,0.142l-0.025,0.142l-0.019,0.141
		l-0.011,0.142l-0.002,0.141l0.004,0.14l0.012,0.141l0.021,0.139l0.026,0.137l0.035,0.137l0.042,0.135l0.05,0.133l0.058,0.132
		l0.064,0.13l0.072,0.128l0.081,0.126l0.088,0.124l0.095,0.122l0.104,0.119l0.11,0.116l0.136,0.13l0.148,0.129l0.16,0.126
		l0.17,0.122l0.179,0.113l0.185,0.103l0.19,0.089l0.193,0.073l0.099,0.03l0.099,0.024l0.098,0.021l0.1,0.014l0.099,0.008
		l0.098,0.002l0.099-0.005l0.097-0.012l0.096-0.019l0.096-0.026l0.094-0.035l0.092-0.042l0.091-0.051l0.088-0.061l0.086-0.068
		l0.086-0.078l0.064-0.072l0.058-0.077l0.051-0.081l0.043-0.084l0.034-0.087l0.025-0.089l0.02-0.091l0.009-0.091l0.001-0.091
		l-0.008-0.091l-0.018-0.089l-0.025-0.087l-0.035-0.084l-0.045-0.081l-0.055-0.076l-0.063-0.071l-0.067-0.063l-0.07-0.056
		l-0.074-0.049l-0.076-0.042l-0.079-0.036l-0.08-0.028l-0.081-0.021l-0.082-0.013l-0.082-0.003l-0.082,0.005l-0.082,0.016
		l-0.08,0.023l-0.078,0.034l-0.077,0.044l-0.075,0.056l-0.072,0.064l-0.074,0.082l-0.059,0.083l-0.044,0.083l-0.033,0.083
		l-0.021,0.083l-0.015,0.082l-0.007,0.08l-0.002,0.079c0.002,0.094,0.004,0.187,0.005,0.265l-0.004,0.056l-0.008,0.049l-0.007,0.021
		l-0.009,0.021l-0.011,0.018l-0.013,0.017l-0.024,0.021l-0.023,0.019l-0.025,0.016l-0.025,0.012l-0.027,0.009l-0.028,0.006
		l-0.027,0.004l-0.029,0.001l-0.06-0.005l-0.06-0.013l-0.061-0.021l-0.061-0.026l-0.058-0.032l-0.059-0.036l-0.104-0.078
		c-0.032-0.029-0.063-0.057-0.09-0.082c-0.025-0.028-0.05-0.055-0.069-0.076l-0.082-0.104l-0.072-0.101l-0.063-0.102L13.59,25.38
		l-0.045-0.098l-0.037-0.099l-0.027-0.096l-0.021-0.095l-0.013-0.096l-0.006-0.094l0.001-0.093l0.008-0.092l0.015-0.092l0.021-0.091
		l0.027-0.089l0.031-0.089l0.038-0.088l0.042-0.087l0.099-0.172l0.114-0.17l0.13-0.167l0.142-0.165l0.149-0.164l0.321-0.319
		c0.082-0.081,0.175-0.171,0.273-0.268c0.1-0.096,0.206-0.196,0.313-0.299l0.17-0.148l0.177-0.144l0.181-0.132l0.186-0.116
		l0.095-0.051l0.094-0.046l0.095-0.04l0.095-0.032l0.096-0.025l0.095-0.018l0.095-0.009h0.095l0.093,0.01l0.092,0.02l0.092,0.03
		l0.09,0.042l0.089,0.054l0.088,0.064l0.086,0.079l0.084,0.093l0.051,0.065l0.045,0.068l0.04,0.068l0.035,0.071l0.028,0.072
		l0.025,0.074l0.021,0.074l0.015,0.075l0.011,0.077l0.006,0.077l0.002,0.078l-0.002,0.079l-0.015,0.156l-0.028,0.157l-0.042,0.157
		l-0.052,0.155l-0.063,0.151l-0.069,0.148l-0.078,0.144l-0.083,0.138l-0.088,0.13l-0.091,0.121l0.019,0.019
		c0.086-0.053,0.182-0.112,0.286-0.177c0.106-0.062,0.222-0.126,0.343-0.194c0.125-0.063,0.255-0.128,0.39-0.194l0.208-0.093
		l0.215-0.086l0.22-0.079l0.225-0.067l0.228-0.058l0.229-0.042l0.229-0.025l0.112-0.007l0.113-0.002l0.112,0.003l0.111,0.008
		l0.109,0.014l0.108,0.021l0.001,3.411h0.63v-2.999H23.9V23.15h-3.409l-0.018-0.11l-0.014-0.112l-0.008-0.113L20.449,22.7
		l0.009-0.229l0.026-0.229l0.042-0.229l0.056-0.226l0.067-0.224l0.078-0.218l0.085-0.213l0.091-0.206l0.096-0.198l0.1-0.188
		c0.068-0.121,0.135-0.236,0.196-0.345C21.365,20.088,21.427,19.99,21.483,19.9z"/>
	<rect x="21.909" y="24.781" fill="#231F20" width="1.993" height="1.992"/>
	<path fill="#231F20" d="M17.673,15.794l-0.066-0.064l-0.074-0.063l-0.08-0.063l-0.084-0.06l-0.088-0.057l-0.092-0.051l-0.094-0.044
		l-0.097-0.036L16.9,15.329l-0.097-0.018l-0.05-0.004h-0.049l-0.048,0.002l-0.047,0.005l-0.048,0.011l-0.047,0.013l-0.046,0.017
		l-0.046,0.021l-0.045,0.025l-0.044,0.029l-0.043,0.034l-0.042,0.039l-0.033,0.036l-0.028,0.038l-0.025,0.041l-0.021,0.042
		l-0.018,0.043l-0.013,0.044l-0.009,0.045l-0.005,0.045v0.045l0.004,0.045l0.008,0.044l0.013,0.043l0.019,0.042l0.021,0.04
		l0.027,0.038l0.031,0.036l0.033,0.031l0.035,0.026l0.036,0.025l0.038,0.021l0.038,0.019l0.04,0.014l0.04,0.009l0.041,0.007
		l0.041,0.001l0.041-0.003l0.041-0.007l0.04-0.012l0.039-0.017l0.039-0.022l0.036-0.027l0.036-0.031l0.036-0.04l0.029-0.041
		l0.021-0.041l0.017-0.041L16.952,16l0.007-0.04l0.004-0.079c-0.001-0.046-0.002-0.092-0.002-0.13l0.001-0.028l0.005-0.024
		l0.009-0.021l0.005-0.009l0.006-0.008l0.023-0.021l0.025-0.013l0.027-0.007l0.027-0.002l0.029,0.002l0.03,0.006l0.03,0.01
		l0.029,0.014l0.058,0.033l0.052,0.039l0.045,0.041l0.034,0.038l0.041,0.05l0.036,0.05l0.031,0.05L17.531,16l0.022,0.048
		l0.019,0.048l0.014,0.048l0.011,0.047l0.006,0.047l0.003,0.048v0.045l-0.004,0.046l-0.007,0.045l-0.011,0.044l-0.028,0.088
		l-0.04,0.087l-0.05,0.085l-0.057,0.084l-0.063,0.083L17.2,17.055l-0.159,0.158c-0.082,0.08-0.184,0.178-0.291,0.281l-0.171,0.144
		l-0.09,0.065l-0.092,0.058l-0.093,0.048l-0.047,0.021l-0.047,0.016l-0.046,0.013l-0.047,0.01L16.07,17.87h-0.046l-0.046-0.005
		l-0.045-0.011l-0.045-0.015l-0.046-0.021l-0.044-0.025l-0.043-0.033l-0.042-0.039l-0.042-0.046l-0.025-0.033l-0.022-0.033
		l-0.037-0.068l-0.026-0.072l-0.018-0.075l-0.008-0.076V17.24l0.007-0.078l0.015-0.078l0.02-0.078l0.026-0.077l0.03-0.076
		l0.035-0.072l0.039-0.071l0.041-0.067l0.089-0.125l-0.009-0.009c-0.04,0.025-0.084,0.052-0.131,0.082
		c-0.049,0.028-0.102,0.058-0.157,0.089c-0.057,0.029-0.116,0.061-0.177,0.091l-0.193,0.085l-0.204,0.073l-0.104,0.03l-0.105,0.023
		l-0.104,0.02l-0.106,0.011l-0.104,0.003l-0.104-0.005l0.022-0.049l0.016-0.051l0.011-0.056l0.004-0.056l-0.002-0.046l-0.008-0.044
		l-0.011-0.043l-0.015-0.041l-0.02-0.039l-0.021-0.037l-0.025-0.034l-0.027-0.032l-0.032-0.028l-0.034-0.025l-0.037-0.021
		l-0.039-0.02l-0.041-0.015l-0.042-0.012l-0.044-0.007l-0.046-0.002l-0.045,0.002l-0.044,0.007l-0.043,0.012l-0.041,0.015
		l-0.039,0.02l-0.037,0.021l-0.034,0.025l-0.032,0.028l-0.028,0.032l-0.025,0.034l-0.021,0.037l-0.02,0.039l-0.015,0.041
		l-0.011,0.043l-0.008,0.044l-0.002,0.046l0.002,0.045l0.008,0.044l0.011,0.042l0.015,0.042l0.02,0.039l0.021,0.037l0.025,0.035
		l0.028,0.031l0.032,0.028l0.034,0.026l0.037,0.021l0.039,0.02l0.041,0.015l0.043,0.011l0.044,0.008l0.045,0.002l0.05-0.003
		l0.049-0.009l0.046-0.014l0.045-0.018l0.006,0.104l-0.002,0.107l-0.012,0.105l-0.017,0.106l-0.024,0.105l-0.028,0.104l-0.072,0.204
		l-0.084,0.191c-0.032,0.063-0.063,0.121-0.092,0.179c-0.032,0.055-0.063,0.108-0.092,0.158c-0.031,0.049-0.061,0.095-0.087,0.137
		l0.011,0.009l0.125-0.09l0.067-0.042l0.071-0.039l0.074-0.035l0.076-0.031l0.076-0.025l0.078-0.021l0.078-0.014l0.078-0.007h0.077
		l0.076,0.008l0.075,0.017l0.071,0.027l0.069,0.037l0.033,0.021l0.033,0.025l0.045,0.041l0.038,0.042l0.031,0.043l0.026,0.043
		l0.021,0.044l0.016,0.044l0.01,0.045l0.005,0.045v0.046l-0.003,0.045l-0.008,0.046l-0.012,0.047l-0.016,0.045l-0.018,0.046
		l-0.045,0.091l-0.056,0.09l-0.063,0.088l-0.139,0.169c-0.101,0.105-0.197,0.206-0.276,0.288c-0.047,0.048-0.097,0.099-0.148,0.149
		l-0.164,0.146l-0.087,0.068l-0.09,0.062l-0.092,0.057l-0.094,0.046l-0.097,0.036l-0.048,0.014l-0.048,0.011l-0.049,0.007
		l-0.049,0.004h-0.049l-0.049-0.006l-0.049-0.009l-0.048-0.013l-0.049-0.019l-0.048-0.022l-0.048-0.027l-0.049-0.033l-0.048-0.038
		l-0.047-0.043c-0.01-0.012-0.021-0.022-0.033-0.036l-0.036-0.047l-0.037-0.055l-0.033-0.059l-0.013-0.03l-0.011-0.03l-0.007-0.029
		l-0.003-0.029l0.001-0.028l0.006-0.025l0.013-0.025l0.019-0.021l0.008-0.008l0.009-0.006l0.022-0.009l0.024-0.005l0.028-0.002
		c0.039,0,0.085,0.001,0.132,0.002l0.039-0.001l0.041-0.004l0.041-0.008l0.041-0.013l0.042-0.017l0.041-0.022l0.04-0.027l0.04-0.035
		l0.032-0.036l0.027-0.037l0.021-0.039l0.017-0.039l0.014-0.041l0.008-0.041l0.003-0.041l-0.001-0.041l-0.005-0.041l-0.01-0.041
		l-0.014-0.04l-0.017-0.04l-0.021-0.038l-0.023-0.036l-0.027-0.036l-0.031-0.033l-0.035-0.032l-0.038-0.026l-0.04-0.022
		l-0.042-0.017l-0.043-0.014l-0.044-0.008l-0.045-0.003l-0.046,0.001l-0.046,0.005l-0.045,0.01l-0.044,0.014l-0.043,0.018
		l-0.042,0.021l-0.041,0.025L12.659,19.1l-0.036,0.032l-0.038,0.042l-0.034,0.042l-0.028,0.044l-0.025,0.044l-0.021,0.045
		l-0.018,0.046l-0.013,0.047l-0.01,0.048l-0.006,0.048l-0.002,0.048v0.048l0.003,0.049l0.016,0.099l0.026,0.097l0.034,0.097
		l0.043,0.095l0.051,0.093l0.055,0.089l0.06,0.085l0.063,0.08l0.063,0.074l0.065,0.068l0.116,0.105l0.122,0.091l0.062,0.04
		l0.064,0.036l0.063,0.031l0.065,0.028l0.065,0.025l0.066,0.021l0.068,0.018l0.067,0.014l0.069,0.009l0.069,0.006l0.069,0.002
		l0.07-0.002l0.07-0.005l0.069-0.009l0.141-0.029l0.14-0.044l0.138-0.058l0.137-0.073l0.134-0.088l0.13-0.103l0.127-0.118
		l0.092-0.104l0.083-0.107l0.073-0.113l0.062-0.116l0.053-0.119l0.041-0.121l0.029-0.123l0.02-0.124l0.006-0.124l-0.005-0.123
		l-0.019-0.123l-0.029-0.122l-0.043-0.119l-0.057-0.117l-0.068-0.113l-0.082-0.108l-0.05-0.058l-0.058-0.055l-0.062-0.052
		l-0.068-0.051l-0.074-0.048l-0.081-0.045l-0.087-0.043l-0.093-0.042l0.126-0.557l0.562-0.131l0.042,0.093l0.043,0.087l0.045,0.081
		l0.048,0.074l0.05,0.067l0.052,0.063l0.056,0.056l0.057,0.05l0.109,0.083l0.112,0.07l0.116,0.056l0.12,0.043l0.121,0.031
		l0.123,0.019l0.123,0.005l0.124-0.006l0.123-0.019l0.122-0.03l0.119-0.041l0.118-0.051l0.115-0.063l0.112-0.073l0.106-0.083
		l0.104-0.094l0.119-0.126l0.104-0.131l0.088-0.134l0.074-0.136l0.06-0.138l0.045-0.14l0.017-0.069l0.013-0.07l0.009-0.069
		l0.006-0.069l0.001-0.07l-0.002-0.069l-0.007-0.068l-0.01-0.068l-0.013-0.067l-0.019-0.067l-0.021-0.067l-0.024-0.065l-0.027-0.065
		l-0.032-0.063l-0.036-0.063l-0.04-0.063l-0.091-0.121L17.673,15.794z"/>
</g>
<g>
	<path fill="#231F20" d="M131.587,223.88l0.02,0.02l0.123-0.094l0.132-0.09l0.139-0.084l0.145-0.079l0.147-0.072l0.153-0.062
		l0.156-0.054l0.156-0.042l0.157-0.028l0.158-0.017l0.078-0.001l0.078,0.002l0.077,0.008l0.075,0.01l0.076,0.016l0.074,0.021
		l0.074,0.023l0.071,0.03l0.07,0.035l0.068,0.039l0.066,0.046l0.066,0.051l0.09,0.082l0.078,0.085l0.065,0.086l0.053,0.088
		l0.042,0.088l0.031,0.09l0.02,0.091l0.012,0.092l0.001,0.092l-0.008,0.093l-0.016,0.094l-0.023,0.093l-0.029,0.093l-0.037,0.093
		l-0.043,0.094l-0.048,0.092l-0.112,0.183l-0.126,0.18l-0.137,0.173l-0.146,0.167c-0.1,0.106-0.198,0.212-0.291,0.311
		c-0.096,0.1-0.185,0.189-0.266,0.272c-0.097,0.096-0.195,0.195-0.299,0.3l-0.162,0.149l-0.168,0.146l-0.177,0.138l-0.182,0.126
		l-0.186,0.112l-0.096,0.05l-0.096,0.044l-0.096,0.039l-0.098,0.034l-0.098,0.028l-0.098,0.021l-0.099,0.015l-0.099,0.007
		l-0.099-0.001l-0.101-0.01l-0.098-0.018l-0.1-0.026l-0.098-0.037l-0.098-0.046l-0.1-0.056l-0.096-0.065l-0.096-0.077l-0.097-0.091
		c-0.019-0.02-0.042-0.044-0.066-0.071c-0.022-0.028-0.049-0.062-0.075-0.095l-0.075-0.108l-0.033-0.06l-0.03-0.061l-0.026-0.062
		l-0.021-0.062l-0.015-0.061l-0.007-0.059V226.4l0.003-0.026l0.005-0.027l0.008-0.026l0.012-0.023l0.014-0.025l0.017-0.021
		l0.021-0.021l0.017-0.015l0.021-0.014l0.021-0.011l0.023-0.007l0.05-0.012l0.057-0.005c0.08,0.002,0.172,0.003,0.268,0.004
		l0.079-0.002l0.081-0.009l0.083-0.017l0.083-0.022l0.084-0.034l0.082-0.044l0.081-0.059l0.078-0.069l0.065-0.072l0.055-0.075
		l0.045-0.077l0.035-0.08l0.024-0.081l0.016-0.082l0.008-0.084l-0.003-0.082l-0.011-0.082l-0.02-0.082l-0.026-0.08l-0.035-0.079
		l-0.042-0.077l-0.05-0.074l-0.056-0.07l-0.063-0.066l-0.072-0.064l-0.077-0.054l-0.08-0.045l-0.087-0.035l-0.087-0.024l-0.09-0.017
		l-0.092-0.006l-0.093,0.001l-0.092,0.011l-0.093,0.02l-0.09,0.027l-0.088,0.034l-0.085,0.044l-0.08,0.051l-0.078,0.06l-0.07,0.063
		l-0.077,0.084l-0.069,0.086l-0.06,0.089l-0.051,0.091l-0.043,0.092l-0.033,0.093l-0.027,0.095l-0.021,0.097l-0.012,0.097
		l-0.005,0.098l0.001,0.1l0.007,0.099l0.015,0.1l0.019,0.099l0.023,0.099l0.028,0.101l0.071,0.193l0.087,0.191l0.103,0.187
		l0.111,0.18l0.12,0.173l0.126,0.161l0.131,0.149l0.132,0.139l0.115,0.11l0.119,0.104l0.122,0.095l0.123,0.088l0.126,0.08
		l0.129,0.072l0.13,0.063l0.132,0.059l0.135,0.05l0.136,0.042l0.137,0.034l0.138,0.026l0.14,0.021l0.14,0.012l0.143,0.005
		l0.141-0.004l0.141-0.01l0.143-0.019l0.143-0.025l0.142-0.033l0.142-0.041l0.14-0.048l0.142-0.056l0.14-0.063l0.138-0.07
		l0.139-0.077l0.136-0.085l0.134-0.094l0.134-0.101l0.132-0.107l0.129-0.114l0.127-0.121l0.097-0.104l0.09-0.105l0.087-0.107
		l0.081-0.111l0.076-0.111l0.071-0.114l0.064-0.116l0.062-0.118l0.055-0.117l0.05-0.121l0.044-0.122l0.038-0.123l0.033-0.124
		l0.027-0.124l0.021-0.124l0.017-0.126l0.011-0.125l0.003-0.125l-0.003-0.126l-0.008-0.124l-0.016-0.124l-0.021-0.125l-0.028-0.122
		l-0.032-0.123l-0.041-0.121l-0.046-0.12l-0.054-0.118l-0.059-0.116l-0.067-0.115l-0.073-0.113l-0.079-0.111l-0.087-0.109
		l-0.102-0.114l-0.113-0.11l-0.126-0.105l-0.137-0.103l-0.15-0.097l-0.163-0.093l-0.175-0.088c-0.062-0.027-0.124-0.056-0.188-0.084
		l0.257-1.125l1.135-0.266l0.084,0.188l0.088,0.175l0.093,0.163l0.098,0.15l0.102,0.137l0.106,0.125l0.108,0.114l0.115,0.101
		l0.109,0.087l0.11,0.08l0.113,0.074l0.115,0.064l0.115,0.062l0.119,0.053l0.12,0.047l0.12,0.04l0.122,0.034l0.122,0.027
		l0.124,0.021l0.123,0.017l0.125,0.008l0.125,0.003l0.125-0.004l0.124-0.009l0.124-0.017l0.125-0.021l0.123-0.027l0.123-0.033
		l0.121-0.038l0.122-0.044l0.119-0.049l0.117-0.056l0.117-0.062l0.115-0.065l0.112-0.071l0.112-0.076l0.109-0.081l0.107-0.087
		l0.104-0.093l0.103-0.097l0.125-0.126l0.116-0.13l0.108-0.132l0.102-0.133l0.094-0.134l0.086-0.136l0.078-0.138l0.071-0.138
		l0.063-0.14l0.057-0.141l0.048-0.14l0.041-0.142l0.034-0.142l0.025-0.141l0.019-0.142l0.01-0.142l0.004-0.141l-0.005-0.141
		l-0.012-0.14l-0.021-0.14l-0.026-0.137l-0.035-0.137l-0.042-0.136l-0.049-0.134l-0.059-0.132l-0.064-0.13l-0.073-0.128
		l-0.079-0.127l-0.088-0.123l-0.096-0.122l-0.104-0.118l-0.11-0.114l-0.137-0.132l-0.148-0.13l-0.16-0.127l-0.17-0.12l-0.179-0.113
		l-0.186-0.102l-0.189-0.09l-0.193-0.073l-0.099-0.028l-0.099-0.024l-0.099-0.02l-0.1-0.016l-0.099-0.008l-0.099-0.002l-0.099,0.005
		l-0.096,0.012l-0.097,0.02l-0.096,0.025l-0.093,0.035l-0.093,0.042l-0.091,0.052l-0.089,0.061l-0.087,0.068l-0.085,0.079
		l-0.064,0.071l-0.058,0.077l-0.052,0.08l-0.043,0.084l-0.034,0.087l-0.026,0.09l-0.018,0.09l-0.011,0.093l-0.001,0.091l0.009,0.091
		l0.018,0.089l0.024,0.087l0.035,0.084l0.045,0.08l0.056,0.077l0.063,0.072l0.067,0.063l0.07,0.057l0.073,0.05l0.076,0.043
		l0.079,0.035l0.079,0.027l0.082,0.021l0.081,0.012l0.082,0.004l0.082-0.006l0.081-0.015l0.079-0.024l0.08-0.034l0.077-0.045
		l0.074-0.054l0.072-0.065l0.074-0.083l0.058-0.082l0.045-0.082l0.033-0.084l0.021-0.08l0.016-0.081l0.008-0.081l0.002-0.078
		c-0.002-0.097-0.004-0.188-0.005-0.267l0.004-0.056l0.009-0.05l0.007-0.021l0.01-0.021l0.01-0.019l0.014-0.016l0.023-0.021
		l0.023-0.019l0.025-0.016l0.026-0.013l0.027-0.008l0.027-0.007l0.027-0.004l0.029-0.001l0.06,0.005l0.061,0.013l0.06,0.021
		l0.061,0.025l0.059,0.031l0.058,0.035l0.105,0.079c0.031,0.029,0.063,0.057,0.09,0.082c0.025,0.028,0.05,0.054,0.069,0.076
		l0.081,0.103l0.073,0.103l0.063,0.1l0.055,0.1l0.046,0.099l0.037,0.098l0.027,0.098l0.021,0.096l0.013,0.095l0.006,0.093
		l-0.001,0.095l-0.009,0.091l-0.015,0.092l-0.021,0.091l-0.026,0.09l-0.031,0.088l-0.037,0.089l-0.043,0.088l-0.1,0.173l-0.114,0.17
		l-0.13,0.167l-0.141,0.166l-0.151,0.162l-0.319,0.318c-0.083,0.082-0.175,0.173-0.273,0.27c-0.101,0.095-0.206,0.195-0.313,0.298
		l-0.17,0.149l-0.178,0.143l-0.181,0.132l-0.186,0.116l-0.096,0.051l-0.094,0.046l-0.095,0.039l-0.096,0.033l-0.096,0.024
		l-0.094,0.019l-0.095,0.009h-0.095l-0.094-0.009l-0.092-0.021l-0.092-0.03l-0.091-0.041l-0.09-0.053l-0.087-0.065l-0.087-0.079
		l-0.084-0.093l-0.051-0.065l-0.046-0.066l-0.04-0.07l-0.035-0.07l-0.029-0.071l-0.023-0.073l-0.021-0.073l-0.015-0.076
		l-0.011-0.076l-0.006-0.077l-0.004-0.077l0.003-0.078l0.015-0.157l0.029-0.158l0.04-0.155l0.053-0.155l0.062-0.152l0.071-0.147
		l0.077-0.144l0.084-0.137l0.088-0.129l0.09-0.122l-0.018-0.02c-0.085,0.054-0.183,0.112-0.286,0.178
		c-0.106,0.061-0.223,0.125-0.343,0.193c-0.124,0.063-0.256,0.127-0.39,0.193l-0.208,0.093l-0.215,0.087l-0.22,0.078l-0.227,0.069
		l-0.227,0.057l-0.229,0.043l-0.229,0.026l-0.113,0.006l-0.111,0.002l-0.112-0.002l-0.111-0.01l-0.108-0.014l-0.108-0.021
		l-0.001-3.411h-0.63l-0.001,2.999h-2.996v0.631h3.408l0.019,0.111l0.015,0.112l0.007,0.112l0.003,0.113l-0.009,0.229l-0.027,0.229
		l-0.042,0.229l-0.055,0.226l-0.067,0.223l-0.077,0.22l-0.086,0.212l-0.092,0.207l-0.096,0.196l-0.099,0.188
		c-0.068,0.121-0.136,0.236-0.198,0.345C131.706,223.692,131.644,223.791,131.587,223.88z"/>
	<rect x="129.168" y="217.005" fill="#231F20" width="1.993" height="1.994"/>
	<path fill="#231F20" d="M135.397,227.986l0.066,0.063l0.074,0.063l0.078,0.063l0.085,0.059l0.088,0.058l0.092,0.05l0.096,0.044
		l0.096,0.037l0.097,0.026l0.099,0.017l0.049,0.004l0.049,0.001l0.048-0.003l0.048-0.005l0.048-0.01l0.048-0.015l0.046-0.017
		l0.046-0.021l0.045-0.024l0.044-0.029l0.043-0.034l0.042-0.039l0.032-0.035l0.027-0.037l0.025-0.04l0.021-0.042l0.017-0.043
		l0.014-0.044l0.01-0.046l0.005-0.045v-0.045l-0.004-0.045l-0.009-0.045l-0.014-0.043l-0.017-0.041l-0.022-0.04l-0.027-0.039
		l-0.031-0.034l-0.032-0.03l-0.035-0.028l-0.036-0.024l-0.038-0.021l-0.039-0.018l-0.039-0.015l-0.041-0.01l-0.04-0.006
		l-0.039-0.002l-0.041,0.003l-0.04,0.008l-0.04,0.012l-0.039,0.019l-0.038,0.021l-0.038,0.026l-0.035,0.033l-0.036,0.04
		l-0.029,0.041l-0.021,0.041l-0.017,0.041l-0.012,0.041l-0.008,0.039l-0.005,0.079c0.001,0.046,0.002,0.092,0.003,0.132
		l-0.002,0.026l-0.004,0.024l-0.008,0.021l-0.005,0.008l-0.008,0.009l-0.022,0.02l-0.027,0.013l-0.025,0.01l-0.028,0.002
		l-0.029-0.002l-0.029-0.009l-0.029-0.01l-0.029-0.013l-0.058-0.033l-0.052-0.039l-0.046-0.041l-0.033-0.038l-0.041-0.051
		l-0.035-0.05l-0.031-0.05l-0.027-0.05l-0.021-0.05l-0.019-0.047l-0.014-0.048l-0.011-0.048l-0.006-0.047l-0.004-0.046l0.001-0.047
		l0.004-0.046l0.007-0.045l0.011-0.045l0.028-0.089l0.04-0.087l0.049-0.085l0.057-0.084l0.064-0.082l0.145-0.162l0.159-0.158
		c0.082-0.08,0.185-0.179,0.291-0.28l0.171-0.146l0.09-0.063l0.093-0.059l0.093-0.048l0.048-0.021l0.046-0.016l0.047-0.013
		l0.047-0.009l0.049-0.006h0.046l0.046,0.006l0.046,0.009l0.045,0.016l0.045,0.021l0.045,0.025l0.043,0.033l0.043,0.038l0.041,0.046
		l0.025,0.033l0.021,0.032l0.037,0.069l0.026,0.072l0.018,0.074l0.009,0.075l0.001,0.077l-0.008,0.077l-0.015,0.078l-0.021,0.078
		l-0.024,0.076l-0.031,0.075l-0.034,0.073l-0.039,0.069l-0.041,0.069l-0.089,0.123l0.01,0.009c0.04-0.024,0.084-0.052,0.133-0.081
		c0.049-0.028,0.102-0.059,0.156-0.09c0.058-0.029,0.116-0.061,0.178-0.09l0.191-0.087l0.204-0.073l0.105-0.028l0.104-0.024
		l0.106-0.02l0.104-0.012l0.104-0.002l0.104,0.005l-0.021,0.049l-0.018,0.052l-0.01,0.055l-0.004,0.057l0.003,0.045l0.007,0.045
		l0.011,0.042l0.016,0.042l0.019,0.039l0.022,0.036l0.024,0.034l0.029,0.032l0.031,0.027l0.035,0.025l0.036,0.021l0.038,0.02
		l0.04,0.016l0.043,0.012l0.045,0.007l0.046,0.003l0.046-0.003l0.045-0.007l0.042-0.012l0.041-0.016l0.04-0.02l0.036-0.021
		l0.034-0.025l0.03-0.027l0.029-0.032l0.026-0.034l0.021-0.036l0.02-0.039l0.016-0.042l0.011-0.042l0.007-0.045l0.002-0.045
		l-0.002-0.046l-0.007-0.044l-0.011-0.043l-0.016-0.04l-0.02-0.04l-0.021-0.036l-0.026-0.035l-0.029-0.031l-0.03-0.028l-0.034-0.025
		l-0.036-0.021l-0.04-0.021l-0.041-0.015l-0.042-0.011l-0.045-0.009l-0.046-0.002l-0.05,0.003l-0.049,0.011l-0.047,0.014
		l-0.045,0.018l-0.005-0.104l0.003-0.106l0.01-0.105l0.019-0.107l0.022-0.104l0.029-0.105l0.072-0.202l0.085-0.192
		c0.03-0.063,0.062-0.121,0.092-0.178c0.032-0.057,0.062-0.108,0.091-0.159c0.031-0.048,0.061-0.095,0.087-0.136l-0.011-0.01
		l-0.125,0.09l-0.068,0.042l-0.07,0.038l-0.073,0.036l-0.076,0.031l-0.077,0.026l-0.077,0.021l-0.079,0.015l-0.077,0.008h-0.076
		l-0.077-0.009l-0.074-0.018l-0.071-0.026l-0.068-0.038l-0.034-0.021l-0.032-0.025l-0.044-0.042l-0.039-0.041l-0.032-0.043
		l-0.025-0.043l-0.021-0.044l-0.016-0.045l-0.01-0.045l-0.005-0.044l-0.001-0.046l0.004-0.046l0.007-0.046l0.012-0.046l0.015-0.048
		l0.02-0.045l0.046-0.092l0.055-0.09l0.063-0.089l0.14-0.168c0.101-0.105,0.196-0.206,0.275-0.289
		c0.047-0.048,0.097-0.097,0.146-0.148l0.164-0.146l0.086-0.067l0.09-0.063l0.094-0.056l0.094-0.047l0.096-0.036l0.048-0.014
		l0.05-0.01l0.049-0.008l0.048-0.004l0.049,0.001l0.05,0.005l0.048,0.008l0.05,0.014l0.049,0.019l0.048,0.022l0.049,0.027
		l0.048,0.032l0.047,0.039l0.049,0.044c0.009,0.01,0.021,0.021,0.032,0.034l0.037,0.048l0.037,0.055l0.032,0.059l0.013,0.03
		l0.011,0.03l0.008,0.03l0.003,0.027l-0.001,0.028l-0.006,0.025l-0.014,0.024l-0.018,0.022l-0.009,0.007l-0.01,0.007l-0.021,0.009
		l-0.025,0.005l-0.027,0.003c-0.039-0.001-0.084-0.001-0.133-0.002l-0.038,0.001l-0.039,0.005l-0.042,0.008l-0.041,0.012
		l-0.041,0.017l-0.041,0.023l-0.04,0.028l-0.039,0.033l-0.032,0.036l-0.027,0.037l-0.021,0.038l-0.018,0.04l-0.013,0.04l-0.007,0.04
		l-0.004,0.041l0.001,0.041l0.006,0.042l0.009,0.04l0.014,0.04l0.019,0.038l0.021,0.039l0.024,0.035l0.028,0.036l0.03,0.032
		l0.034,0.032l0.038,0.025l0.041,0.022l0.042,0.018l0.043,0.013l0.045,0.008l0.045,0.004l0.045-0.001l0.047-0.006l0.045-0.009
		l0.045-0.015l0.044-0.018l0.041-0.021l0.04-0.024l0.039-0.029l0.034-0.032l0.039-0.041l0.033-0.042l0.029-0.044l0.024-0.044
		l0.021-0.046l0.017-0.046l0.015-0.048l0.009-0.047l0.007-0.049l0.003-0.049l-0.001-0.048l-0.004-0.049l-0.016-0.098l-0.025-0.1
		l-0.036-0.096l-0.043-0.095l-0.05-0.093l-0.056-0.09l-0.061-0.084l-0.063-0.08l-0.065-0.074l-0.063-0.068l-0.116-0.105
		l-0.122-0.091l-0.063-0.039l-0.063-0.036l-0.063-0.031l-0.065-0.028l-0.065-0.024l-0.066-0.021l-0.067-0.017l-0.068-0.015
		l-0.068-0.011l-0.069-0.005l-0.069-0.002l-0.068,0.001l-0.069,0.005l-0.07,0.01l-0.141,0.029l-0.139,0.043l-0.14,0.059
		l-0.136,0.073l-0.135,0.089l-0.13,0.103l-0.127,0.116l-0.094,0.104l-0.083,0.108l-0.071,0.111l-0.063,0.116l-0.052,0.119
		l-0.04,0.12l-0.03,0.123l-0.019,0.123l-0.006,0.125l0.005,0.123l0.018,0.124l0.03,0.12l0.042,0.119l0.056,0.117l0.069,0.113
		l0.083,0.108l0.05,0.058l0.057,0.055l0.063,0.052l0.068,0.052l0.073,0.047l0.08,0.047l0.087,0.043l0.094,0.041l-0.127,0.558
		l-0.562,0.132l-0.041-0.094l-0.044-0.087l-0.046-0.08l-0.049-0.074l-0.05-0.066l-0.054-0.063l-0.055-0.056l-0.057-0.051
		l-0.108-0.082l-0.114-0.069l-0.115-0.056l-0.118-0.044l-0.121-0.03l-0.122-0.018l-0.124-0.008l-0.123,0.008l-0.123,0.019
		l-0.122,0.029l-0.12,0.041l-0.118,0.052l-0.114,0.063l-0.11,0.073l-0.108,0.083l-0.103,0.094l-0.119,0.127l-0.103,0.131
		l-0.091,0.134l-0.073,0.136l-0.06,0.139l-0.045,0.14l-0.017,0.068l-0.014,0.069l-0.009,0.07l-0.005,0.069l-0.002,0.069l0.002,0.069
		l0.007,0.067l0.01,0.069l0.014,0.068l0.018,0.065l0.021,0.066l0.024,0.066l0.028,0.064l0.031,0.065l0.036,0.063l0.04,0.063
		l0.091,0.121L135.397,227.986z"/>
</g>
</svg>
